<mxfile host="app.diagrams.net" agent="Mozilla/5.0 (Windows NT 10.0; Win64; x64) AppleWebKit/537.36 (KHTML, like Gecko) Chrome/138.0.0.0 Safari/537.36" version="28.0.7">
  <diagram id="PGH-OwDka9Virz7BmbtO" name="Page-1">
    <mxGraphModel dx="4777" dy="2105" grid="1" gridSize="5" guides="1" tooltips="1" connect="1" arrows="1" fold="1" page="0" pageScale="1" pageWidth="827" pageHeight="1169" math="0" shadow="0">
      <root>
        <mxCell id="0" />
        <mxCell id="1" parent="0" />
        <mxCell id="dP7_pyaXJRkLh--tu1lG-11" style="edgeStyle=orthogonalEdgeStyle;rounded=0;orthogonalLoop=1;jettySize=auto;html=1;exitX=0.5;exitY=1;exitDx=0;exitDy=0;entryX=0.5;entryY=0;entryDx=0;entryDy=0;" edge="1" parent="1" source="dP7_pyaXJRkLh--tu1lG-2" target="OwK2bWAj1pkKwTB8wIO4-5">
          <mxGeometry relative="1" as="geometry" />
        </mxCell>
        <mxCell id="OwK2bWAj1pkKwTB8wIO4-65" style="edgeStyle=orthogonalEdgeStyle;rounded=0;orthogonalLoop=1;jettySize=auto;html=1;exitX=0.5;exitY=1;exitDx=0;exitDy=0;entryX=0.5;entryY=0;entryDx=0;entryDy=0;" parent="1" source="OwK2bWAj1pkKwTB8wIO4-64" target="OwK2bWAj1pkKwTB8wIO4-1" edge="1">
          <mxGeometry relative="1" as="geometry" />
        </mxCell>
        <mxCell id="OwK2bWAj1pkKwTB8wIO4-19" style="edgeStyle=orthogonalEdgeStyle;rounded=0;orthogonalLoop=1;jettySize=auto;html=1;exitX=0.5;exitY=1;exitDx=0;exitDy=0;entryX=0.5;entryY=0;entryDx=0;entryDy=0;" parent="1" source="OwK2bWAj1pkKwTB8wIO4-1" target="OwK2bWAj1pkKwTB8wIO4-2" edge="1">
          <mxGeometry relative="1" as="geometry" />
        </mxCell>
        <mxCell id="OwK2bWAj1pkKwTB8wIO4-20" style="edgeStyle=orthogonalEdgeStyle;rounded=0;orthogonalLoop=1;jettySize=auto;html=1;exitX=0.5;exitY=1;exitDx=0;exitDy=0;entryX=0.5;entryY=0;entryDx=0;entryDy=0;" parent="1" source="OwK2bWAj1pkKwTB8wIO4-2" target="OwK2bWAj1pkKwTB8wIO4-3" edge="1">
          <mxGeometry relative="1" as="geometry" />
        </mxCell>
        <mxCell id="OwK2bWAj1pkKwTB8wIO4-21" style="edgeStyle=orthogonalEdgeStyle;rounded=0;orthogonalLoop=1;jettySize=auto;html=1;exitX=0.5;exitY=1;exitDx=0;exitDy=0;entryX=0.5;entryY=0;entryDx=0;entryDy=0;" parent="1" source="OwK2bWAj1pkKwTB8wIO4-3" target="OwK2bWAj1pkKwTB8wIO4-4" edge="1">
          <mxGeometry relative="1" as="geometry" />
        </mxCell>
        <mxCell id="OwK2bWAj1pkKwTB8wIO4-22" style="edgeStyle=orthogonalEdgeStyle;rounded=0;orthogonalLoop=1;jettySize=auto;html=1;exitX=0.5;exitY=1;exitDx=0;exitDy=0;entryX=0.5;entryY=0;entryDx=0;entryDy=0;" parent="1" source="OwK2bWAj1pkKwTB8wIO4-4" target="dP7_pyaXJRkLh--tu1lG-2" edge="1">
          <mxGeometry relative="1" as="geometry" />
        </mxCell>
        <mxCell id="OwK2bWAj1pkKwTB8wIO4-24" style="edgeStyle=orthogonalEdgeStyle;rounded=0;orthogonalLoop=1;jettySize=auto;html=1;exitX=0.5;exitY=1;exitDx=0;exitDy=0;entryX=0.5;entryY=0;entryDx=0;entryDy=0;" parent="1" source="OwK2bWAj1pkKwTB8wIO4-6" target="OwK2bWAj1pkKwTB8wIO4-7" edge="1">
          <mxGeometry relative="1" as="geometry" />
        </mxCell>
        <mxCell id="OwK2bWAj1pkKwTB8wIO4-67" style="edgeStyle=orthogonalEdgeStyle;rounded=0;orthogonalLoop=1;jettySize=auto;html=1;exitX=0.5;exitY=1;exitDx=0;exitDy=0;entryX=0.5;entryY=0;entryDx=0;entryDy=0;" parent="1" source="OwK2bWAj1pkKwTB8wIO4-7" target="OwK2bWAj1pkKwTB8wIO4-66" edge="1">
          <mxGeometry relative="1" as="geometry" />
        </mxCell>
        <mxCell id="OwK2bWAj1pkKwTB8wIO4-23" style="edgeStyle=orthogonalEdgeStyle;rounded=0;orthogonalLoop=1;jettySize=auto;html=1;exitX=0.5;exitY=1;exitDx=0;exitDy=0;entryX=0.5;entryY=0;entryDx=0;entryDy=0;" parent="1" source="OwK2bWAj1pkKwTB8wIO4-5" target="OwK2bWAj1pkKwTB8wIO4-6" edge="1">
          <mxGeometry relative="1" as="geometry" />
        </mxCell>
        <mxCell id="OwK2bWAj1pkKwTB8wIO4-80" value="?&lt;b&gt;myParam&lt;/b&gt;=pole-position&amp;amp;&lt;b&gt;page&lt;/b&gt;=2&amp;amp;&lt;b&gt;query&lt;/b&gt;=shirt&amp;amp;&lt;b&gt;filter&lt;/b&gt;=Category%3AT-shirts&amp;amp;&lt;b&gt;loc&lt;/b&gt;=30.8%3A-42.8" style="rounded=1;whiteSpace=wrap;html=1;fontColor=#797979;fontStyle=2;align=left;spacingLeft=6;strokeColor=#797979;verticalAlign=middle;fontFamily=Helvetica;fontSize=12;fillColor=default;" parent="1" vertex="1">
          <mxGeometry x="-1680" y="560" width="540" height="20" as="geometry" />
        </mxCell>
        <mxCell id="OwK2bWAj1pkKwTB8wIO4-79" value="?&lt;b&gt;custom&lt;/b&gt;=pole-position&amp;amp;&lt;b&gt;page&lt;/b&gt;=2&amp;amp;&lt;b&gt;query&lt;/b&gt;=shirt&amp;amp;&lt;b&gt;filter&lt;/b&gt;=Category%3AT-shirts&amp;amp;&lt;b&gt;latitude&lt;/b&gt;=30.8%3A-42.8" style="rounded=1;whiteSpace=wrap;html=1;fontColor=#797979;fontStyle=2;align=left;spacingLeft=6;strokeColor=#797979;verticalAlign=middle;fontFamily=Helvetica;fontSize=12;fillColor=default;" parent="1" vertex="1">
          <mxGeometry x="-1680" y="420" width="560" height="20" as="geometry" />
        </mxCell>
        <mxCell id="OwK2bWAj1pkKwTB8wIO4-78" value="?&lt;b&gt;page&lt;/b&gt;=2&amp;amp;&lt;b&gt;query&lt;/b&gt;=shirt&amp;amp;&lt;b&gt;filter&lt;/b&gt;=Category%3AT-shirts&amp;amp;&lt;b&gt;latitude&lt;/b&gt;=30.8%3A-42.8" style="rounded=1;whiteSpace=wrap;html=1;fontColor=#797979;fontStyle=2;align=left;spacingLeft=6;strokeColor=#797979;verticalAlign=middle;fontFamily=Helvetica;fontSize=12;fillColor=default;" parent="1" vertex="1">
          <mxGeometry x="-1680" y="260" width="430" height="20" as="geometry" />
        </mxCell>
        <mxCell id="OwK2bWAj1pkKwTB8wIO4-77" value="?&lt;b&gt;page&lt;/b&gt;=2&amp;amp;&lt;b&gt;query&lt;/b&gt;=shirt&amp;amp;&lt;b&gt;filter&lt;/b&gt;=Category%3AClothing%2FLong+%26+short+sleeve+shirts%2FT-shirts&amp;amp;&lt;b&gt;latitude&lt;/b&gt;=30.8&amp;amp;&lt;b&gt;longitude&lt;/b&gt;=-42.8" style="rounded=1;whiteSpace=wrap;html=1;fontColor=#797979;fontStyle=2;align=left;spacingLeft=6;strokeColor=#797979;" parent="1" vertex="1">
          <mxGeometry x="-1680" width="740" height="20" as="geometry" />
        </mxCell>
        <mxCell id="OwK2bWAj1pkKwTB8wIO4-76" value="?&lt;b&gt;page&lt;/b&gt;=2&amp;amp;&lt;b&gt;query&lt;/b&gt;=shirt&amp;amp;&lt;b&gt;filter&lt;/b&gt;=BaseSize%3AS&amp;amp;&lt;b&gt;filter&lt;/b&gt;=Category%3AClothing%2FLong+%26+short+sleeve+shirts%2FT-shirts&amp;amp;&lt;b&gt;latitude&lt;/b&gt;=30.8&amp;amp;&lt;b&gt;longitude&lt;/b&gt;=-42.8" style="rounded=1;whiteSpace=wrap;html=1;fontColor=#797979;fontStyle=2;align=left;spacingLeft=6;strokeColor=#797979;verticalAlign=middle;fontFamily=Helvetica;fontSize=12;fillColor=default;" parent="1" vertex="1">
          <mxGeometry x="-1680" y="-100" width="860" height="20" as="geometry" />
        </mxCell>
        <mxCell id="OwK2bWAj1pkKwTB8wIO4-75" value="?&lt;b&gt;query&lt;/b&gt;=shirt&amp;amp;&lt;b&gt;filter&lt;/b&gt;=BaseSize%3AS&amp;amp;&lt;b&gt;filter&lt;/b&gt;=Category%3AClothing%2FLong+%26+short+sleeve+shirts%2FT-shirts&amp;amp;&lt;b&gt;latitude&lt;/b&gt;=30.8&amp;amp;&lt;b&gt;longitude&lt;/b&gt;=-42.8&amp;amp;&lt;b&gt;page&lt;/b&gt;=2" style="rounded=1;whiteSpace=wrap;html=1;fontColor=#797979;fontStyle=2;align=left;spacingLeft=6;strokeColor=#797979;verticalAlign=middle;fontFamily=Helvetica;fontSize=12;fillColor=default;" parent="1" vertex="1">
          <mxGeometry x="-1680" y="-200" width="860" height="20" as="geometry" />
        </mxCell>
        <mxCell id="OwK2bWAj1pkKwTB8wIO4-74" value="?&lt;b&gt;query&lt;/b&gt;=shirt&amp;amp;&lt;b&gt;filter&lt;/b&gt;=BaseSize%3AS&amp;amp;&lt;b&gt;filter&lt;/b&gt;=Category%3AClothing%2FLong+%26+short+sleeve+shirts%2FT-shirts&amp;amp;&lt;b&gt;sort&lt;/b&gt;=Price%3Aasc&amp;amp;&lt;b&gt;latitude&lt;/b&gt;=30.8&amp;amp;&lt;b&gt;longitude&lt;/b&gt;=-42.8&amp;amp;&lt;b&gt;page&lt;/b&gt;=2" style="rounded=1;whiteSpace=wrap;html=1;fontColor=#797979;fontStyle=2;align=left;spacingLeft=6;strokeColor=#797979;verticalAlign=middle;fontFamily=Helvetica;fontSize=12;fillColor=default;" parent="1" vertex="1">
          <mxGeometry x="-1680" y="-300" width="980" height="20" as="geometry" />
        </mxCell>
        <mxCell id="OwK2bWAj1pkKwTB8wIO4-73" value="?&lt;b&gt;query&lt;/b&gt;=shirt&amp;amp;&lt;b&gt;filter&lt;/b&gt;=BaseSize%3AS&amp;amp;&lt;b&gt;filter&lt;/b&gt;=Category%3AClothing%2FLong+%26+short+sleeve+shirts%2FT-shirts&amp;amp;&lt;b&gt;sort&lt;/b&gt;=Price%3Aasc&amp;amp;&lt;b&gt;hitsPerPage&lt;/b&gt;=24&amp;amp;&lt;b&gt;latitude&lt;/b&gt;=30.8&amp;amp;&lt;b&gt;longitude&lt;/b&gt;=-42.8&amp;amp;&lt;b&gt;page&lt;/b&gt;=2" style="rounded=1;whiteSpace=wrap;html=1;fontColor=#797979;fontStyle=2;align=left;spacingLeft=6;strokeColor=#797979;verticalAlign=middle;fontFamily=Helvetica;fontSize=12;fillColor=default;" parent="1" vertex="1">
          <mxGeometry x="-1680" y="-400" width="1080" height="20" as="geometry" />
        </mxCell>
        <mxCell id="OwK2bWAj1pkKwTB8wIO4-17" value="" style="shape=image;verticalLabelPosition=bottom;labelBackgroundColor=default;verticalAlign=top;aspect=fixed;imageAspect=0;image=data:image/png,iVBORw0KGgoAAAANSUhEUgAAAbQAAAK7CAIAAAAV6O1ZAAAgAElEQVR4Ae2dy5GjMBCGiUsBKY4JgZuj8JXzloPwhRAchLZarRcgYbBRm8e/tTWDhWi1PuF/WgiaxuAfCIAACIDAhEAzKUEBCIAACICAgTjiJAABEACBDAGIYwYKikAABEAA4ohzAARAAAQyBCCOGSgoAgEQAAGII84BEAABEMgQGItj3yrV9tOKpfJpTZSAAAiAwAkIjMSx043OSKMplY8I9K1Wjf2ntFaqHe2u8bFvqUXdZWzbPexO0zRK50Q/cxiKQAAEQMAMb+UphYel8hHAvo0C1HcUgo4qVPpI7ebE0VhN93tIuCGPlYYAZkHgfATSyLEUHpbKxzSshnaZwLPvfEA5jN+6JNBsvYhZSaNIr+3d/ih9qaGWQlPbmBVlHybGymYojiZq6Np2M/U7bYNR2y/dcf9i02kErcT+SIzHA59BAAS+IBDFsRQelspzjZJ48byaYkgvk61Opup9p3WIKPtQhwQ4yiMLpFK6owq9/UllVODa7TtN+kmf7Mza7SEHYnyYWk37sa5dY3L1qVVqqm81Tet7ds/5o1rnKLuZY4UyEACBXRMI4pjqSOpxqTytk9mOosAXBcOlP9rwMhgDrEapUGqtddM5MBVlWrLi6C1aBR2IY2g4FdYQsS5plxqIkW/w04ot+eMJxciUdNK1awU+6zUKQQAEdk3AiWMaVqX+lsrTOoVtrxmkFFlRs6GfjwQTZbH2CuLo48ZBm4NjBwcGH9L669ttQiCYzM3nxNE31/cUV+a77+vgNwiAwC4JsDj2o0mtd7VU7vcPfg9EJ1ERUkeVXFJ0B5G4aJ5W88XFGP3ZcCyZHbsj4kSaJroUnfEh68Rxbbul+mVxpI4F0bfXAgac8AEEQOAIBEgc7dc8E5OVygv9Iu3ScT6Zal26kBKVI0y4lW47WlBhPbRrHWE2HCfh1tNo30VzwQi15w9lQ36Nhld3otfhkIXt5ur7lnTHjaq252q6M63SAw4ZtNEZbIEACOyTQLOZNu6zf/AKBEAABD4iEBZkPjoaB4EACIDASQlAHE86sOgWCIDAdwQgjt/xw9EgAAInJQBxPOnAolsgAALfEYA4fscPR4MACJyUAMTxpAOLboEACHxHAOL4HT8cDQIgcFICiTjam5inz6WctOPoFgiAAAjMEYjiuPJ5mDmj2AcCIAACRycAcTz6CMJ/EACBKgQgjlWwwigIgMDRCThxtBkLlU8lc/ROwX8QAAEQ+JYAIsdvCeJ4EACBUxKAOJ5yWNEpEACBbwlAHL8liONBAAROSSCKI7+nCvc5nnKY0SkQAIG1BBJxXHso6oMACIDAeQlAHM87tugZCIDAFwQgjl/Aw6EgAALnJQBxPO/YomcgAAJfEIA4fgEPh4IACJyXAMTxvGOLnoEACHxBAOL4BTwcCgIgcF4CIuL41OavMffOPBRtPIZvub/bwr/G/CnzTEjfJzXZztRCclCVzXn/VzZp02Y2TYM7SleCQ3UQkCUgIo6v1mkiq0yqgK/W3PS6Lj/UWF6NWW1kVZMz/q+yYysjb+Z6ZjgCBH5AQFAcn8aQOCrz8v28NySa4f+tdTvmI8SROLJyBSN/TQw/X525eft3b9wYw+0+evOwIW1U596EMPauTPCHm5j6T+72ummaRne+T29/QxzfIkIFENgDARFxNJ3TRFKZYZxIkWMiWymSkQiGXdnyKHChnjH3pK1XZ1J9ZJm+d6TUL/vTGJr1P7zKPXXiWNl/iGPCG5sgcCYCMuJYJlZPHKcRZarLT52Zm5sk0rzpGOGW3f9gDyLHD6DhEBCQJ3BecSSlK8Skxk7wR+tCKfuXnXHPHJ5WXrkNcVwJDNVB4DcETiOO/lImXUb0s+l7Mk0e4c1Gjjdlnn4l/alpef39P1xzfM8INUDgiAR+Ko5htYSXU5wYdXGJxi2zsNiVyi32sIYzmA4nCyw35cVuYiesnt90XJAZ2JkZ2Q4LMjN0sAsEjkvgp+J4XGxfeI5p9RfwcCgIyBGAOMqx5pZwE7g0cbQHAh8RgDh+hA0HgQAInJ0AxPHsI4z+gQAIfEQA4vgRNhwEAiBwdgIS4vjv37+zY0T/QAAEzkZAQhzPxgz9AQEQuAABCXFE5HiBEwldBIGzEZAQRyFm9h4ZZEkUoo1mQODsBCTEUSZyxM3VZz9X0T8QECUgIY4yHYI4ynBGKyBwEQIS4ojI8SInE7oJAmciICGOArz6VqtGdT6ljkCLaAIEQODcBCTEEZHjuc8h9A4ETklAQhxlwOGaowxntAICFyEgIY6IHC9yMqGbIHAmAhLiKMQL9zkKgUYzIHAJAhLiKBM5XmK40EkQAAEpAhLiKNUXtAMCIAACmxGQEEdEjpsNFwyBAAhIEZAQR6m+oB0QAAEQ2IyAhDjWjhxr298MNgyBAAgch4CEOB6HBjwFARAAAUdAQhxrR3a17eNkAQEQuCABCXE8PNanNn+NuXfmoWjjIfUI91btdrppmkZ3/FZYl/KSC2mH/ad0hSfT7SPvzrxWqk3PhE433ybfzPYrbQPbIPAFAQlxrB3Z1bZvXq3TRFar5xe8Vx26Vbvh9nirJrpzTvStittWq1Z597Yy2W/dH5K+a0fi+Pbw9xUK/Xp/IGqAwAICEuK4wI19V2GRehpD4qjMy3rLUeTdBpV/jbnp2Idna24N6emfMg+Woo4+3rQt19ZOcsir8/Ubc0/Cq2y7rpneRYOx1fKWFRHSQRLHGK6NxDEqZUc5jlzA13opJfNpJKii2PWdr99EOaTaSrW5eNQHrdEV6zsHttww/QyRZsE+NUAB8bhfZRDYAwIrCEiIY+3IrrZ9YzqniaRWiQg+FOkda+VdJdPt3hUaY+6N4UiTjrXC+tBk5GXMXbld98Tmq0v0sdAuje8acSRRtEJEahKCRdaWoEWpUvW9v3LQ6XhAKnZ9Emm2WvvqxvSd1kHfSdVYZkk0YyXbAZLOQVEU674j6fU7y/bz/Vpx+qMqCJQJSIhjufWD73l4dTM2qAzXIl8hcmwoJAzieLOq8dR0+dIYuoL5NG7OTmFm+J9oZU1CUYxIbEnHnB7FALFRqZqaJEIM1yjH8Z69ujlxOxVT3lnMokQGvSc2WnVRbJDxKNeTZlAAAtsRkBDH2pFdbftF2nlxtOHe04c9oQ4pZk4cTefKi83U2jEQRzsLtlGlDcf8bHhUx7nS931Lwaj92Okw/53zNI1BqV5eHEfKSBUX2p9rG/tA4AMCEuL4gVvHOCQIXxo5kgj6uTZffJyPHGnqHS5NLu/3qml13uxA+Ci0syEZiZbmKXBvLz6GeTjtCKLZ6XCN0sac6aVJbm4gsqSFwZDdnxHHgTJGTSzYz3fKlfJlzWGLswdgJwiMCUiIY+3Irrb9MTP+zAsyf3bWzKvY4S6fsOve2rt/lHnZBRm+H4grP3p3YxBJZ0/6yNPqm3KT7nyrofTrb79fFQmz1TCVDRNlpduO1jzcnlZpnay8eJ10c3JnRwUFJXEc1He+Txr20+TxjhiQpisywX5AkdmwpkKHMhVQBAJvCUiI41snUAEENiUwCEE3tQxjFyIgIY61I7va9i90Opyjq6SNmFGfYyx/2QsJcfxl/9A2CIAACHxEQEIca0d2te1/BBYHgQAIHJuAhDgemxC8BwEQuCQBCXGsHdnVtn/JEwOdBoGrE5AQx6szRv9BAAQOSEBCHGtHdrXtH3BY4TIIgMC3BCTE8Vsff34837b9fT7H0b3im/drKz+tY/5WcNxKvfk4weAxCEiIY+3Irrb9jfM5PtL8PZueJZzi7NG7lGj82OKnLWQe7/vUFI4DgSMSkBDHI3IZ+JzNq3j3SXSCGFHGRk4tEbLy5B6aHokjP2vIQsY2Y3afQp7H9HHDu4p5K7J+up6sfhYb4jg4B/DhegQkxLF2ZFfb/lw+xyBkIREZnUO5fI7h3BqJY8hdxhWeOuaFLOV5JAs+0cNTR3Es5Z20Lq1Ijms9gTiGEcPGNQlIiON5yfYxAfjNZwg3NkWjywSe5HMMFBaKI4eBMcljk+TZTSLKkAEo2N9oA+K4EUiYOSoBCXGsHdnVtj83tpy1bBA2FvI5BisLxXFJnsdXbx5p5Bja2GAD4rgBRJg4MgEJcTwyn7e+21S147Axl88xWMqKI0/Pn/5NXly5lOfxpkxIpjvQ5dDGdAPXHKdMUAICcwQkxLF2ZFfb/hw/vmLIrz0I9TL5HCmjdfIiBF7M8a9DCC/YummKBENeyHThJc3zeNNJ/kcvxKH1/AYnS1yRqwaRYx4kSi9DQEIcLwPzVB2FOJ5qONGZ9QQkxLF2ZFfb/nqqZzgCN4GfYRTRhy8ISIjjF+7hUBAAARD4DQEJcawd2dW2/5uRQasgAAI/JSAhjj/tIBoHARAAgU8ISIhj7cju6PY/GTccAwIgUJmAhDhW7gLMgwAIgMD2BCTE8eiRXW3/tx9VWAQBEPiagIQ4fu3kNQzYe2eQPfEag41eHoCAhDjWjryObp9PE9x0fYCvC1y8EgEJcbwSz8/7CnH8nB2OBIEKBCTE8eiRXW3/eVghjhVOb5gEgc8JSIjj595d5si+1apRXX+ZDqOjILB7AhLiWDvyOrp9PkkQOe7+ywIHr0VAQhyvRfTT3kIcPyWH40CgCgEJcTx6ZFfbfx5YiGOVExxGQeBTAhLi+KlvFzsO9zlebMDR3Z0TkBDH2pHX0e3v/BSBeyBwTQIS4nhNsug1CIDAoQlIiOPRI7va/h/6BILzIHBWAhLieFZ26BcIgMCJCUiIY+3IC/ZPfIKiayDwKwIS4virvqFdEAABEPiYgIQ4IrKbH57afOZbx14QAIEsAQlxzDaMQjkCT23+GnPvzEPRxuPTR7jZzjcWuM9b+dPppmka3fFbZJNUmPZRddrXKK2Vah3qYn25oUBLByIgIY61IyPYf3PCvVqniaxKzzfV3+x+qM/llU1v5U+4bd6qnu6c432rdOv+APRdG8WxUP9Nf7H7qgQkxPGqbHfTbxajpzEkjsq8rGP3hhSTw8AQEt5skPVszY33KvPwkhN6MxJHjkZZcNlmiExfnbfTmLsP34wxWX+c/d5Fg6G5mQ0rdqSJJI4xcLQPYuYyHBXqz7SAXVcmICGOiOzmz7DafIzpnCaSKunoTCpzT03zbvevdwJqjLk3ZhRppkdx/YeKdZ46xpX3pK1Xl+hjwR+ytkYcSRStJpLqhcCRjHRaKTetbvt4FaFU3/cbv0EgISAhjklz2NwVgd7cvH7dfETJkZ2LHBsK/T4TRw4POTh1P31bggx6q4eCDaKp8xCQEMfakRHsf34+ctA3CBttWPf04VYaFXIzSyPHzvAk/XPnNjmy04OgchObMHIJAhLieAmQR+2klbBx2KjdtJovPi6JHPk649Ov/DCNe+6S5RtQq6bVWVs2VgyXHGl1JlwuyNa3hX4hu1wDey5HQEIcEdnNn1a1+cy3Tvf3xKuNti6vsdDdP629+4dn3J1bwIkzZT9NDgsvN20e9rYhtybTm7u9eeivMbdJK3m3vlcpEket+ZIj3cuzQBrtik6ypJN3DaUXIyAhjhdDiu4ejgAt6MTV7sO5D4frEJAQx9qREezXOTcuY3W82H2ZjqOjswQkxHHWAewEARAAgT0SkBBHRHbzI1+bz3zr2AsCIJAlICGO2YZRCAIgAAJ7JiAhjrUjI9jf8xkG30DgoAQkxPGgaOA2CIDAlQlIiCMiu/kzrDaf+daxFwRAIEtAQhyzDaNQjsBW+RPXerxVu/7GcJtV54sbEreys5YD6h+TgIQ41o6MYP/Nucc5IB69TVk2TCQREk+8MfHR7pl2V9mzokg3aVt1W/TIS9b+VnayxlF4OgIS4ng6aEfrEIvUKJ/jNGsOP0Ptyn2SHn6U8MYZHpV7OpAeB/TPX1MWn9/kbTQmyfit2vCYIAeIqu271j5FGJ4gtOJI2ko18ETM0U5jcX8lxBGR3fyw1uZTzOdoTExZlrqY5mQ0aVoz+7Q158pNy3+Ut5FyfPvkQTaFY/zE8qd0R8kce/uTOoh8jukwY/sNAQlxfOMCdv+QQH5anQhiKpRp8h5jKCfF06f1jtkomkE+3Xpdm6Tb6XSilYMP9ZyA5TMTkBDH2pER7H9+hubF0b5QgTLrJCpJYaafa3N7LtXjj/I2Qhw/H3UcuYiAhDgucgSVfkIg6B2lGvMpyMgTK4uP5J0HJI6lafVP8jaa+Wl1EkYuIOsXshdURZWrEJAQR0R282dTbT5zrcdXayULLHwA7Url0kaOT7/2ki7ImJ/kbSQF5xUXegVrXJBhnbNvkLE/lqxu22PWyekcVew7BQEJcTwFqOt1Ir3ayL0PYebZYNAyNqTxbKP6dX8kxLF2ZAT7X58GQwPhra3hPa48p+ZVl128GWbo8JefSBuXxJdfNoPDD0ZAQhwPhgTuggAIgIAxEuKIyG7+TKvNZ7517AUBEMgSkBDHbMMoBAEQAIE9E5AQx9qREezv+QyDbyBwUAIS4nhQNHAbBEDgygQkxBGR3fwZVpvPfOvYCwIgkCUgIY7ZhlEoR2CrvIolj8Od5PTE4ap/naEEP+2bYzb1v7OZeuzt4SFdT6F9fzs5boEsADp5sYQ41o6MYP/NSbpVXsX5Zh7KrBZHypTzXhw39L9vldKrJJyOSNL9zDPA3jMRkBDHM/E6ZF9YXEb5HEt5GF0+R5sT14WEId9E+phgm8lDkYojJ4LkHJF8V3nYG/M/KkPPI/rIMZbbh7gD65L/VKHXFAQuuoXbB4L+yULl23V5H+kpRB3TQrrmc+KYPLaolQp2+hiVKg1BDeN31A0JcURkN3921OZTzOdYysNIYhTSkdkN7sBdmaePul4d1XG5He3uaeTo0vbYvfFhxC5JlGvVNohjyR/j2yLHho97rxFH8sNKHfcm+dlT2kf7r9NjoZ2Koy3p+IjepojkY1udxKR9p7UXX2cbvw5GQEIcD4bkIu6GCDGmYkx0h7SvGcpfEuJlES0Ux6iS1sqrdZHjvD/ZFj8ozIpjDAQbNXmQcCqOlDRXufBTUUJd64dNM+6DUv69KJ79oBM4RIaAhDjWjoxg/6NzZVbsaEKtaOIcQsW3Fwe/FMe39j/q5PigjDja2M8pHEWWI0nLiaO32vd9qxs3rab8un4Hfp+BgIQ4noHTKftwL+RhfCg/87UJysK1wnsTl1z4+iBfUmQ4WXHkY58txaHOzsy0uuDPHPwV1xzJzFQcqUTztJpfOvNWHOmAIKadDmra6SRx2pzP2HcMAhLiiMhu/lyozafcerrAoszdvqKKF1L+0gWZoGvD+i6o5Al4Y6fh/NNPz8MCy027N3OxPoZyurKZ3s0ztM/+lL23e3iVZSRo+WNaPxd2k19/UJgQ03IMVeLV6fH6TVj2aZXWcV4ddJKkN51vRwXNu4PSvROQEMe9M4B/IAACIDAhICGOtSMj2J8MKwpAAAS+JSAhjt/6iONBAARAQJyAhDgispsf1tp85lvHXhAAgSwBCXHMNoxCEAABENgzAQlxrB0ZHd3+ns8P+AYClyUgIY6XhYuOgwAIHJeAhDgePbKr7f9xzx54DgInJiAhjifGt1XX6Ibj8KTFVkZhBwRA4AsCEuJYO/I6un0evmk+mC+GFYeCAAh8S0BCHL/18RrHT1MeXKPf6CUI7JSAhDgePbKr7T+fGhDHnX5F4NZVCUiI41XZruy3TVqAjPwrqaE6CNQiICGOtSOvo9vnsUXkWOsch10Q+IiAhDh+5NjlDoI4Xm7I0eF9E5AQx6NHdrX95zMEq9X7/qbAu8sRkBDHy0Fd32Hc57ieGY4AgboEJMSxduR1dPt1RxjWQQAEPiIgIY4fOYaDQAAEQOCXBCTE8eiRXW3/fzn+aBsEQKBAQEIcC02jGARAAAT2S0BCHGtHXrXt73f04BkIgEA1AhLiWM15GAYBEACBWgQkxLF2ZFfbfi32sAsCILBjAhLiuOPuL3TNvd8dDz4v5IVqIHACAhLiWDuyq22fh7lvFcTxBGc8ugACCwlIiONCV3ZeDeK48wGCeyCwLQEJcawd2dW2z8QhjtueebAGAjsnICGOO0ew0D2I40JQqAYC5yAgIY61I7va9nmkIY7nOOPRCxBYSEBCHBe6svNqeXHkdWzd7dx5uAcCILCWgIQ41o7sattnpllxtNqIRey1Zx3qg8ABCEiI4wEwLHAxJ459qxpI4wJ4qAICxyMgIY61I7va9o0p3ARO2ogZ9fFOengMAksISIjjEj9QBwRAAAR2RUBCHGtHdrXt72rA4AwIgIAMAQlxlOkJWgEBEACBDQlIiGPtyK62/Q1xwxQIgMBRCEiI41FYwE8QAAEQCAQkxLF2ZFfbfoCFDRAAgesQkBDHw9N8avPXmHtnHoo2Hv0nPbo35k+Z1yeHrjvm/qmHoZlN+uutdVo17p96c9+Tu2MKt456dvj9UwIS4lg7sqtt37xap4msGs9PR+y2Xhxv+tPGvjhuq/4aY+jWeb3qj0nuZvsv+oJDQeBTAhLi+KlvuzmOxeJpDIljKnC9udtYkuJKZW4teczRJQsoRYtJHHdT5tmamy286SSKzNnhRv9sZf4ZRDmYfdiQNggoa3faYvDnbmv+NSZUJl+76Ayb4qC42F9SO01h4JsQkEfOB4IhcLR8qNnWR5NKt+PH0nPi2CcHKKW8nT5GpUq3qyR4N+cWHNkvAQlxrB3Z1bZPIsKaSKqRhHIPZR7+u/3UThxZj4KQPXWcht8aqsMz61cXdapkx5hYZ3QKsUzfO7L2sj9DBbI2FIqHIjvc7j3ZS2Jta756Usl4VKG/1MQKcbTVKX96cM1v9L13sNNjoZ2Koy3p+Ii+04032OokJu07racN+QbxGwTWE5AQx/VeHeUIH3lxRBauJz6UyYtjGnXaGNNVK9iZF8eoZUNcWXGc+vNqo5obGxSXDA7Nr/tkhW18SAwEGzV5AHMqjvT4pr9uqZT2Mtn6Mh+ZjmV23Cw+g8AqAhLiWDuyq23/PdBXbx5LIseSOPoWRnbOKY429nMKR9ckR1P0nDh6Pn3ftyFy7LQPIf1u/AaBLQlIiOOW/u7KVpiWcuR191PsELs9/UoOu51Oq+nio5+hl+yQOHo9pWuCvv58oBdaD6zeRrLjaXU4crrx9bSaxE/ztLq3Fx/fiiMdEMS000FNO63U5JLl1GOUgMBnBCTEsXZkV9t+kexNxwWZcFHP2IuAYdUlLHTwrTwsl6NpeMkOiyCvxkT7HS3ypP/D3DwtpG0rprxA9NfQTH+8YuOn8zdNke+iaTWvsowELU9oPO/1B1EyI/uPlmNom7O+jddvwrJPq7SO8+qgk3QBNJ1vRwXNu4NSEFhHQEIc13mE2j8hMI03f+IGGgWB3RCQEMfakV1t+7sZrAqOcIRLtyJhqbcCXpg8MgEJcTwyH/gOAiBwUQIS4lg7sqtt/6KnBroNAtcmICGO1yaM3oMACBySgIQ4IrI75KkBp0Hg2gQkxPHahNF7EACBQxKQEEdEjoc8NeA0CFybgIQ4ChCmG4jDkxMC7aEJEACBsxOQEEeZyHGa3+XsY4f+gQAIVCQgIY4V3U9MT1MYJDuxCQIgAALrCEiIo0zkCHFcN/KoDQIgMEtAQhxnHdhup01CwDkMtjMKSyAAAhclICGOiBwvenKh2yBwZAIS4ijDJz+tXpFhS8ZNtAICIHAMAhLiKBM5ZlerrTZiqn2McxFegsCuCEiIo0CHC/c5UlpVSKMAfzQBAucjICGOMpFjZmxIG3366cxuFIEACIBAkYCEOBYbxw4QAAEQ2CsBCXH8WeS4V+jwCwRAYP8EJMRx/xTgIQiAAAiMCEiIIyLHEXR8BAEQ2D8BCXHcPwV4CAIgAAIjAhLiiMhxBB0fQQAE9k9AQhyFKNh3xeOuRiHaaAYEzk5AQhxlIse+VVDGs5+u6B8IyBGQEEeZ3kAcZTijFRC4CAEJcUTkeJGTCd0EgTMRkBBHAV59q1Wjul6gKTQBAiBwCQIS4ojI8RKnEjoJAuciICGOMsRwzVGGM1oBgYsQkBBHRI4XOZnQTRA4EwEJcRTihfschUCjGRC4BAEJcZSJHC8xXOgkCICAFAEJcZTqC9oBARAAgc0ISIgjIsfNhguGQAAEpAhIiKNUX9AOCIAACGxGQEIca0eOte1vBhuGQAAEjkNAQhyPQwOeggAIgIAjICGOtSO72vZxsoAACFyQgIQ4Hh7rU5u/xtw781C08ZB6hHurdumt3k2jO3snaPoi777TinY1jdJt16qDvce22K/Dn3HowB4ISIhj7ciutn3zap0mslo9pQZuq3bD7fFWTYICdlq1vRf6niqFXaUe7ks/C/0qOY9yEFhFQEIcVzm0x8osUk9jSByVeVkfOYq826DyrzE3HT1/tubWkJ7+KfPobHlHH2/almtrJznk1fn6jbm30U62Xbe7d9FgrF3esiJCwkfi6DMC92Wh6yjHUQgofYOtK+M9FIn6FmMAShGol1tD7fExSnct+RvbDg2oNpjhQFC1vWufA1nrfDg0fKK2s/3yTuE3CHxJQEIca0d2te0b0zlNJLVKRPChSO9YK+8qmW73rtAYc28MR5p0rBXWhyYjL2Puyu26JzZfXaKPhXZpzNeII4mi1SVSE69pNm4snD19CCg7HQ6gullBbbWOgth3Wjt9p9TsnEXOhqVeGc0gZTsJa6KnVr6V7siB3v5kjY1VUlHP9avQJRSDwFoCEuK41qfD1H94dTM2qAzXIl8hcmwoJAzieLOq8dR0+dIYuoL5NG7OTmFm+J9oZT0WQ1EatGOzY7rQMaopVcmIo4vlfDxJv63+2ixJ0WxoLhU3uzvsoU+DD+Ho5Jh8hVATGyCwGQEJcawd2dW2X4SdF0cb7j19LBXqkGLmxNF0rrzYTJ0dI/GKjdhwzOcNTmSJamTE0epZPDpsjewHURtZHOlhqBbs8IYrnxw8qoaPILAdAQlx3M7bnSq/QvIAACAASURBVFkKwpdGjiSCfq7NFx/nI0eaeodLk8s7uGpanTfb6eSVZDS9tRf5SNQ0T6v54p+fh5ORMCO2waWbTVs74cphbCtUNmum1ekkO9qi64u6bQdT8GTvZJOvX6auT6qgAATmCUiIY+3Irrb9PEFekPmzs2ZexQ53+YRd99be/aPMyy7I8P1AXPnRuxuDSDp70keeVt+Um3TnWw2l23z74wSa7uVx0W6YKPP9PWExhBz1SywNXRcMzsTiRpHE+j2+tl2QSVQvaTYuyHCP4vR8rGy0f1wWPBhtWFtJg6Pd+AgCCwhIiOMCN1Dl5AS6GEZ+2tPSjDtjj+Qd0pgBg6I1BCTEsXZkV9v+Gp6oOyAQbv8Z3uIzqPP2QxJSLlO8dFH+rXVUAIECAQlxLDSNYhAAARDYLwEJcawd2dW2v9/Rg2cgAALVCEiIYzXnYRgEQAAEahGQEMfakV1t+7XYwy4IgMCOCUiI4467D9dAAARAIE9AQhxrR3a17efJoRQEQODUBCTE8fAA+bbt7/M5ju4V35zLVn5ax/yt4Mvuntm8LzAIAr8mICGOtSO72vY3zuf4SPP3bDr+nOLs0buUaPzY4qct2Gej/aMunxrBcSBwXAIS4nhcOs7zbF7Fu0+iE8SIMjZyaomQlSf30PRIHPlZQxYythmz+xTyPKaPG95VzFuR9dP1YfWz2BDHw5+36MB3BCTEsXZkV9v+XD7HIGQhERmNRy6fYxinkTiG3GVc4aljXshSnkey4BM9PHUUx1LeSevSiuS41hOIYxgxbFyTgIQ4npdsHxOA33yGcGNTNLpM4Ek+x0BhoThyGBiTPDZJnt0kogwZgIL9jTYgjhuBhJmjEpAQx9qRXW37c2PLWcsGYWMhn2OwslAcl+R5fPXmkUaOoY0NNiCOG0CEiSMTkBDHI/N567tNVTsOG3P5HIOlrDjy9Pzp3+TFlUt5Hm/KhGS6A10ObUw3cM1xygQlIDBHQEIca0d2te3P8eMrhvzag1Avk8+R3gCQvAiBF3P86xDCC7ZumiLBkBcyXXhJ8zzedJL/0QtxaD2/waltluZDpOum3ycZy3uCUhA4BgEJcTwGCXg5JABxHPLAp8sRkBDH2pFdbfuXOylsh3ET+DXHHb0OBCTEMTSGDRAAARA4CgEJcawd2dW2f5SxhJ8gAAIbEpAQxw3dhSkQAAEQkCEgIY61I7uj25cZabQCAiCwioCEOK5yCJVBAARAYA8EJMTx6JFdbf/3cB7ABxAAgREBCXEcNYmPeQL23hlkT8zDQSkIiBOQEMfakdfR7fOg46Zr8ZMfDYLAHAEJcZxrH/s8AYijJ4HfILALAhLiePTIrrb/fCJAHHfxhYATIOAJSIijbwu/iwT6VqtGdXgrQZEQdoCANAEJcawdeR3dPo85Ikfpcx/tgcAsAQlxnHUAOx0BiCNOBRDYFQEJcTx6ZFfbfz4hII67+mLAGRCQEEdQXkQA9zkuwoRKICBEQEIca0deR7cvNNRoBgRAYA0BCXFc4w/qggAIgMAuCEiI49Eju9r+7+JEgBMgAAJDAhLiOGwRn0AABEDgAAQkxLF25AX7BzjR4CIIHI2AhDgejQn8BQEQAAEjIY6I7OZPtNp85lvHXhAAgSwBCXHMNoxCOQJPbf4ac+/MQ9HG49NHuNnONxa4z1v5Y63hFbJyJ9LFWpIQx9qREey/OWlfrdNEVqXnm+pvdj/U5/LKpjf1B08WvRkv7P6UgIQ4fuobjtuIAIvR0xgSR2Ve1uy9IcXkMDCEhLeW9j1bc+O9yjy6sRMjceRolAWXbYbI9NV5O425W8tsK+uPa6bXTdM0etLq2IvwGeIYUGBjWwIS4ojIbn7MavMxpnOaSKqkozOpzD01zbvdv94JqDHm3phRpJkexfUfKtZ56hhX3pO2Xl2ijwV/yBrE0Q8Cfv+agIQ4/rqPaL9EoDc3r183H1EaY14hcmwo9PtMHDk85ODU/fRtldz5qByR40fYcNB7AhLiWDsygv3341yqwUHfIGy0Yd3TL9qkUSEbWRo5doYn6aWmNyqHOG4EEmbGBCTEcdwmPu+IgJWwcdio3bSaLz4uiRz5OuPTr/xwB++5S5Zv+o5p9RtA2C1GQEIcEdnND2dtPvOt0/098WqjrctrLHT3T2vv/uEZd+cWcOJM2U+Tw8LLTZuHvW3Ircn05m5vHvprzG3SSt6tDgsyeTAoFScgIY7inUKDFyKAafWFBlu2qxLiWDsygn3Zc2ZfreEm8H2Nx4m8kRDHE+FCV0AABK5CQEIcEdnNn021+cy3jr0gAAJZAhLimG0YhSAAAiCwZwIS4lg7MoL9+TOsNp/51rEXBA5KQEIcD4oGboMACFyZgIQ41o5cYH/+DK7NZ7517AWBgxKQEMeDooHbSwn4G7f5rhrV+kcPTd9pRUl2mkbptmuVS7bD9Zsmqbm0qVCP25rJ3tPpr+xTQ8V+BS+wcWYCEuJYO3KB/fkztDYfY4WKlM6qSRCsTqu290LZU6Wwi9LvtGq5OAZdTXvaZ0vTGl9uF/r1pVUcfhQCEuJ4FBbw80MCVkRI+EgcveK9k66cOPZtiDRV6xKoWeMcfvLPoLDUQtuG0DQkXHMRX3SFusVmlA4NBDM2RGQrSnctPb7o+pDt14eMcNjxCEiIY+3IBfbnz7vafKwoWj0hNfGiY+PGGcem4jgIJWlGHufn2RjRaZeNTTs9jkOn9qm+0t2kPrXLpTa8TZr1U/O0XzNdwq5zEZAQx3MRQ2+WERiIW+aQsXhNIs3UQEkcvRKTPieiRs2N7duSTH1bL/o3sRN3YetiBCTEsXbkAvvzJ21tPvnWR6IzqTQWL4jjBBEKfktAQhx/20O0/isCg6kuTZP9arV1aCyOxsxOq11caK9Kal7lGcjpJOKb2i/Vj+2Op9Vlcn4hu1wDew5PQEIca0cusD9/GtbmM9N6ssKi3XW9sFwSF1nCZDepHhZkrPX0niB3edCvxNDBLFVuIcV/GNq3FyipaFJ/vCAzmp5ne2fbWFIxezQKj0FAQhyPQQJegoAxXQwjZ3DYpZ24XDRTE7sOTEBCHGtHLrA/fwLW5jPf+iH2+jCUblb3d2aWHcfidZnNmfZIiOOZeKEvIAACFyEgIY61IxfYnz9Za/OZbx17QeCgBCTE8aBo4DYIgMCVCUiIY+3IBfbnz+DafOZbx14QOCgBCXE8KBq4DQIgcGUCEuJYO3KB/fkzuDaf+daxFwQOSkBCHA+KBm4vJeAfF+Ebrd290em92Ae8XZr7Em5PX4qiaj2PdM8433LzyTwqkMqeh1+0IyGOtSMX2J8/AWrzKeVz5EdPFtw3OO/+R3v5O0pJdmMms7WGBo8brj14WD+bOGNYZemn6WORS4+UqvczbnbQ6S+HVckvRt6RkhBHqUFBOz8iYE9K/1jeIKyZPPHMHmYeE2Q1W5dvsdzdTjf2bu6Qa7dclfYk/milVOu9LOSLTOsnjzly4KLavuO0lCzMXqbD04wLvrR5f4JXA8Tkfki4PryJPVfuo0+bszL5YDEU7HDDmZ95P0kcF+fZDAnX13DLt8t/pLPnYcb3BUUS4lg7coH9+YGuzSefz9H6lBXHwRN69AV2wSXJyLp8i+V+R6vlOn6PjcX4iW3SmSYRR3oUO5v/MTxGk/hP9khuKMEGqXJvf9pWVkWOJX/Y32nk2GqXiYMq9J3WTtxL5QMLnQ7Bdak+tzv9WfLT/a2ccCv5T+VruJXanTkPp84vKZEQxyV+oM4pCWQ0ajLpCnUGe9JSr1aEKJTP8aLIgiLAIGFzldmoC+yssLnaRX+Gsd/Ao8GH2OoqcbSdzPjD5gbSxnkrQ1DqNqx/k4iVc25YI71WTk/jH6q5+rEjw60k0vR/1dijSGgCZOw/W5xU4+ICt3y7Q982+CQhjrUjF9ifPxFq85lpPT3nndYMJIcODXUGe9LSleIYG1ItvfUgflNnPLW7+r5vB5FjPDT1J5YO/J98iM0VvuSxQn5r6A/XmYgLeZY7vFROdR2iJGzkccjZWVA29DM/jt7MxH+7I+D11fj3G27DdoeHbvBJQhw3cBMmjkkgPefDdyZGKzwN9BFeqEB9TY6M9ZflW6QYyF5xpADDG5/h1ybhIs2Svfa992fo/8jttMXQBXu1LJkFp5X8dskf3j8VF5s3M7PuVCq3dohv8Iotz9b3ziW/S36WuPGhU/+pPBnupIWY4jPlVmo3PXC8zVdX/ciO9xY+S4hj7cgF9guD64pr88m3Hi72J5M+f3ImF9T9gkaY1VEdf6xXNj+Nsi/A8oX5Zm2pt6/s67R8q6UDWqXDe7fCRc9Zf7x9ur7oXwQWnPb9TZuNSyPJ9HOVPxGKt5+ExNF8oxKlH6zUpOXUsv0TMpLUkp28pyu5+UEd+z8uf8st227eRV9q21hw4vj6/FtCHIct4hMIfE5gWb7Fz+3jyDMSoD8Eq6XRGAlxrB25wP78CV2bz3zrm+xdl29xkyZh5DQEckHyks5JiOMSP1AHBEAABHZFQEIca0cusD9/StXmM9869oLAQQlIiONB0cBtEACBKxOQEMfakQvsz5/BtfnMt469IHBQAhLieFA0cBsEQODKBCTEsXbkAvvzZ3BtPvOtYy8IHJSAhDgeFA3cXkqAb+PVHd84zTeU8Xa84Ze2PrjVjDOtzD0BeKD8gEt5ot4+CEiIY+3IBfbnz6XafFjASPmsSvITDuEpMcoeZh/EGD2sNu9zunfwOFq6Y/32m2d1RwatwI/6NaqCjycmICGOJ8aHrhEBKyKkgCSO4/AwiOMCVsljeUvyKnLEOmmSi3eYH3ABAVTZEQEJcawducD+/AlVm48VRauJpJLpo7Hk13JxtMHmiryK3OsQog4gWJlemFex1O58vwbN4cMZCUiI4xm5oU9LCUzE0cd78Xpk0FOfYMIljHVNDKbVk/QtJXEcR7DWWGFanW93aQ9R76QEJMSxduQC+/MnZ20+861PxHG+ut07zNNXXxy9S8N2fSl+X5SAhDheFC26bQksF8dSnr5NxdEFlPbqZsyG7V6GwK9jCYEsRvDaBCTEsXbkAvvz53BtPsXWBxPo95KTzdMXbgmi471Bq3D+w3h6Pi5PG44JC5O8itl2i53CjssQkBDHy8BER0EABM5DQEIca0cusD9/PtbmM9869oLAQQlIiONB0cBtEACBKxOQEMfakQvsz5/BtfnMt469IHBQAhLieFA0cBsEQODKBCTEsXbkAvtXPoPRdxCoREBCHCu5DrMgAAIgUI+AhDgispsfv9p85lvHXhAAgSwBCXHMNoxCQQLuvujs48aCbqApEDgSAQlxrB0Zwf6SMy6foGHJkagDApckICGOlwS7u05DHHc3JHBo3wQkxBGR3fw5UJsPtw5xnB8F7AWBEQEJcRw1iY8/IQBx/Al2NHpcAhLiWDsygv0l5x/EcQkl1AGBQEBCHENj2Pghgbw48jp2mtXrhy6iaRDYEwEJcURkNz/itflw61lxtNqIO3zmxwd7L0pAQhwvinZn3c6JI2WShTTubKDgzl4ISIhj7cgI9t+dTYWbwHMvC3xnCvtB4CoEJMTxKizRTxAAgRMRkBBHRHbzJ0xtPvOtYy8IgECWgIQ4ZhtGIQiAAAjsmYCEONaOjGB/z2cYfAOBgxKQEMeDooHbIAACVyYgIY6I7ObPsNp85lvHXhAAgSwBCXHMNoxCOQJPbf4ac+/MQ9HGoxdqeqt2/WM8dOtR88WNmVvZEcKHZn5MQEIca0dGsP/mJHq1ThNZrZ5J9ZtOPmy9OdPuqqasKNLN6lbdPn/WcSs7q5xH5cMSkBDHw8I5i+MsUk9jSByVedl+ceFfQ7rJ/1k0XbmvxsHmrTW3ho592CD0rzE37ewYY16d3Wvt3NtILduu293rpmmaZUJnRY2qkjimT/T0raZYksJJ1Xa+YQ4QVdt3vFv5Vop2/JH4DQIJAQlxRGSXAM9s1uZjTOc0kdRqGCpmI8enTqbePekg/7s15t56TUzK774CC2XUx3K7Zo04kihaTSR180pnTKsSoew7nXxiGVW663tjevuTupC3kxkSFIGAMRLiCM77JRCEb+BiInypUN58OMmVH8o8jZlGoCP9HVje7kPfhoiQjQ7UcfBhu0Zh6UoEJMSxdmQE+5+fsXlxtBNwWrdJVNIYkxVH05lbMpX+3JWVR0IcVwJD9bUEJMRxrU+oL0cg6B1dTExmxyyLj3R+bejCYn5arcwjXPFb6PuqaXXe5vy0Op1k549PS/1CdlqG7YsTkBBHRHbzJ1ltPnOt8/r1aIGFD6BdqVzayPHp117SBRnTm7u9SYjsKLpn6P2/TdQouyDDlnmdhn7Gi5Rlr+wx6+S0bAx7TkJAQhxPgupq3UivNnLfQ5h5NhS00ANpPNuoft0fCXGsHRnB/tenwdDA3d/cE+77oQuOvvAnVxiHDm78abgIvrFxmDssAQlxPCwcOA4CIHBdAhLiiMhu/vyqzWe+dewFARDIEpAQx2zDKAQBEACBPROQEMfakRHs7/kMg28gcFACEuJ4UDRwGwRA4MoEJMQRkd38GVabz3zr2AsCIJAlICGO2YZRKEeA7/Sul88x3Em+OlNkRwmB3t4btKn/nU/k0zSjh7MnA+JvJ8ctkBM0lyiQEMfakRHsvzlVOTfEo7cpyxrKFlHj30MluXyWN7Dg0ewN/e9bpfSqZL90RLvqiOV9R81dE5AQx10DuIJzLC6jfI6lPIwhy46rb9M4cgrIwWOCbSYPRRo5ciJIFmK+qzzsjfkflaHnEX3eilhuH+IOQ1PynyqseEbbB4L+yULl23V5HyktpI5pIV3zOXFMHlvUSgU7lDbNGVcaghrG76gbEuKIyG7+7KjNp5jPsZSHkcQopCOzG9yBuzJPH0O9fK7G0Ldp5Mg5zbhCfBixSxLl2oeygziW/JnJR7lGHMkRK3XBZb/RU9pH+6/T42exp+JoSzo+orcpIvnYVicxad9p7cXX2cavgxGQEMeDIbmIuyFCDJnA0zQTpH1pzEiZYmOIl0W0UByjSlorr9aZnfcn2+IHhVlxjIFgo9Jsutb+VBwpaW6IECmhrq/nQ1L/e0nKiw/6gEOECEiIY+3ICPY/OllmxY7WQBRNnEOoWFsc39r/qJPjgzLiaGM/p3AUWY4kLSeO3mrf9y0lKbefKb+u34HfZyAgIY5n4HTKPtwLeRgfys98bYKycK3wnry5kK8Ppms72ciRj336N3wRxplpdcGfOfgrrjmSmak4UonmaTW/dOatONIBQUw7HdS00+mbbOacxr5DEJAQR0R286dCbT7l1nN5GHkh5c8uao/v0RnWd0ElT8B9zh6ajPsskGGB5abdm7lYK0M5XdlM7+YZ2t86L6R9sauf8iaJHu17t6iclmOoEq9Oj9dvQmbIVmkd59VBJ0l60/l2VNDyAGDPnglIiOOe+w/fQAAEQCBLQEIca0dGsJ8dWhSCAAh8Q0BCHL/xD8eCAAiAwE8ISIgjIrv5oa3NZ7517AUBEMgSkBDHbMMoBAEQAIE9E5AQx9qR0dHt7/n8gG8gcFkCEuJ4WbjoOAiAwHEJSIjj0SO72v4f9+yB5yBwYgIS4nhifFt1jW44Dk9abGUUdkAABL4gICGOtSOvo9vn4Zvmg/liWHEoCIDAtwQkxPFbH69x/DTlwTX6jV6CwE4JSIjj0SO72v7zqQFx3OlXBG5dlYCEOF6V7cp+26QFyMi/khqqg0AtAhLiWDvyOrp9HltEjrXOcdgFgY8ISIjjR45d7iCI4+WGHB3eNwEJcTx6ZFfbfz5DsFq9728KvLscAQlxvBzU9R3GfY7rmeEIEKhLQEIca0deR7dfd4RhHQRA4CMCEuL4kWM4CARAAAR+SUBCHI8e2dX2/5fjj7ZBAAQKBCTEsdA0ikEABEBgvwQkxLF25FXb/n5HD56BAAhUIyAhjtWch2EQAAEQqEVAQhxrR3a17ddiD7sgAAI7JiAhjjvu/kLX3Pvd8eDzQl6oBgInICAhjrUju9r2eZj7VkEcT3DGowsgsJCAhDgudGXn1SCOOx8guAcC2xKQEMfakV1t+0wc4rjtmQdrILBzAhLiuHMEC92DOC4EhWogcA4CEuJYO7KrbZ9HGuJ4jjMevQCBhQQkxHGhKzuvlhdHXsfW3c6dh3sgAAJrCUiIY+3IrrZ9ZpoVR6uNWMRee9ahPggcgICEOB4AwwIXc+LYt6qBNC6AhyogcDwCEuJYO7Krbd+Ywk3gpI2YUR/vpIfHILCEgIQ4LvEDdUAABEBgVwQkxLF2ZFfb/q4GDM6AAAjIEJAQR5meoBUQAAEQ2JCAhDjWjuxq298QN0yBAAgchYCEOB6FBfwEARAAgUBAQhxrR3a17QdY2AABELgOAQlxPDzNpzZ/jbl35qFo49F/0qN7Y/6UeX1y6Lpj7p96GJrZpL/eWqdV4/6pN/c9uTumcOuoZ4ffPyUgIY61I7va9s2rdZrIqvH8dMRu68Xxpj9t7IvjtuqvMYZunder/pjkbrb/oi84FAQ+JSAhjp/6tpvjWCyexpA4pgLXm7uNJSmuVObWksccXbKAUrSYxHE3ZZ6tudnCm06iyJwdbvTPVuafQZSD2YcNaYOAsnanLQZ/7rbmX2NCZfK1i86wKQ6Ki/0ltdMUBr4JAXnkfCAYAkfLh5ptfTSpdDt+LD0njn1ygFLK2+ljVKp0u0qCd3NuwZH9EpAQx9qRXW37JCKsiaQaSSj3UObhv9tP7cSR9SgI2VPHafitoTo8s351UadKdoyJdUanEMv0vSNrL/szVCBrQ6F4KLLD7d6TvSTWtuarJ5WMRxX6S02sEEdbnfKnB9f8Rt97Bzs9FtqpONqSjo/oO914g61OYtK+03rakG8Qv0FgPQEJcVzv1VGO8JEXR2TheuJDmbw4plGnjTFdtYKdeXGMWjbElRXHqT+vNqq5sUFxyeDQ/LpPVtjGh8RAsFGTBzCn4kiPb/rrlkppL5OtL/OR6Vhmx83iMwisIiAhjrUju9r23wN99eaxJHIsiaNvYWTnnOJoYz+ncHRNcjRFz4mj59P3fRsix077ENLvxm8Q2JKAhDhu6e+ubIVpKUdedz/FDrHb06/ksNvptJouPvoZeskOiaPXU7om6OvPB3qh9cDqbSQ7nlaHI6cbX0+rSfw0T6t7e/HxrTjSAUFMOx3UtNNKTS5ZTj1GCQh8RkBCHGtHdrXtF8nedFyQCRf1jL0IGFZdwkIH38rDcjmahpfssAjyaky039EiT/o/zM3TQtq2YsoLRH8NzfTHKzZ+On/TFPkumlbzKstI0PKExvNefxAlM7L/aDmGtjnr23j9Jiz7tErrOK8OOkkXQNP5dlTQvDsoBYF1BCTEcZ1HqP0TAtN48yduoFEQ2A0BCXGsHdnVtr+bwargCEe4dCsSlnor4IXJIxOQEMcj84HvIAACFyUgIY61I7va9i96aqDbIHBtAhLieG3C6D0IgMAhCUiIIyK7Q54acBoErk1AQhyvTRi9BwEQOCQBCXFE5HjIUwNOg8C1CUiIowBhuoE4PDkh0B6aAAEQODsBCXGUiRyn+V3OPnboHwiAQEUCEuJY0f3E9DSFQbITmyAAAiCwjoCEOMpEjhDHdSOP2iAAArMEJMRx1oHtdtokBJzDYDujsAQCIHBRAhLiiMjxoicXug0CRyYgIY4yfDCtluGMVkDgIgQkxFEmcsRq9UVOWXQTBGQISIijQE9wn6MAZDQBApciICGOMpHjpYYNnQUBEKhNQEIca/cB9kEABEBgcwIS4ojIcfNhg0EQAIHaBCTEsXYfYB8EQAAENicAcdwcKQyCAAicgQDE8QyjiD6AAAhsTgDiuDlSGAQBEDgDARlxdO9rx4PPZzhl0AcQuAYBGXEkln2rII7XOKnQSxA4AwGI4xlGEX0AARDYnADEcXOkMAgCIHAGAhDHM4wi+gACILA5AYjj5khhEARA4AwEfi2OvI6tuzOwRB9AAARORODH4mi1EYvYJzqh0BUQOAuB34pj36oG0niWcwn9AIFTEZARx8JN4KSNmFGf6nxCZ0DgNARkxPE0uNAREACBqxCAOF5lpNFPEACBVQQgjqtwoTIIgMBVCEAcrzLS6CcIgMAqAhDHVbhQGQRA4CoEII5XGWn0EwRAYBUBEXF8avPXmHtnHoo2Hv3Axbst/GvMnzLPwZ7xB7YztVAqHx//9nNvgjN3bW7t2wM2qMBMsh2f57a8bf8YEt061fCNpckm2+E6irvct5pqUmWtlSsM7dmqS27ByrQbjGADBPZOQEQcX63TRP62p0Lwas1Nr4P0UGN55eNL5cutpxaerZA4GkN/M1ImweEZbqHOkg2rhHSzfSprXOg1rtNKKfehb5Vu3R+wvqM0nEkjNi1n1/q6yZ7pZrbdaTWUgMAuCQiK49MYEkdlXp7EvSHRDP9jpJZEcLHQH5VKmC+j35nynJ2bbTFEr+wDt0IWck95vzrDR1H8mygFCSj7PzyQbT5687Ahc1T/oT83j4LatX8//prBnwoWxyk36m2vKbDz2pZymG5bkaKqJI7+iSQrgU7kaDsKHuvfMLx3RjttVdHW5yIbjAajLL/UCO3Ntjt1DyUgsEsCIuJoOqeJ9G0fxokUOSZyw4yCahhjSJiGFTIiaA+blmftvFqa4Kf/7l6kTCJe9zYR8cTnV5foY5/UaQbRH/8ZuHdU4WV/GkNz9qfXnJdnwrL+p52pexoX+zpTbqvEkSTLaiKplddTFrhOq7ZnyUuiQSrheTXFkN5lEk0+OhFHUkBvkqFak35z2m5KHtsgsGMCMuJYBjAVxznxsnamIsjmR+UzdjiUuzVWdvux+LK1p7/myOFbCG9pw2slOe8j39tEHENw6no/UXlXPpxWP3X+okGovNWGE7Veq4YnzmORsw31Vle5Tb6EyNci/bVL2tMq3dNPjkp7ktutnIQdChAIogAAHolJREFUEPgdgUuKI4WKVqooTJsEkm4wOi+CJVGzYV2IBEfXDTMaV7LzW3GMp15WHO1UfBgZ8nw5KfPRZ0sbbcFMbAdbIHAMAvsTR2NMdjoceI4ixJnykp2nNncboFF4GBZDhmKXBp6kocOZOM337VISXz/li4/pokpGHI25Jyv1fB2TD0mFNXtg6GPcWHPNMR6VbE2mw17VbKzY+eBvUo1MjAo7rbWNF9NlnaSpzKZfyM7sQhEI7IPAT8UxzEl50hovBSbX/uIFxy4u3bhJLk9vS+X0JY635kQ7VtfculCfLBBZcQy38sRVlJEdFS9Z8l04vEpD23ztcuJPFM3UH3/9MRhxCy/D9aLiWfKdutilEr5Xh+bA8aPu7AVK7W/laUYXFHlRJx5p/aPDeS7du4ubRbfdDus9pt/vMGH/Twn8VBx/2nM0/jsCUU1/5wNaBoE3BCCObwBh9/YESBuTa5bbNwCLILABAYjjBhBhAgRA4HwEII7nG1P0CARAYAMCEMcNIMIECIDA+QhAHM83pugRCIDABgQgjhtAhAkQAIHzEYA4nm9M0SMQAIENCIiIYzYv4UweQ+5X+jzJZz0d3GSeJnRYaW4rO6Vms3xKlefKO3/vdsw5llS3d17jFpqECDZBYIaAiDhy7oZHb1OWJQka0sfmZnxMdw0eXEl3ZLfD89H+KZeQLS1bvVi4lZ1CAyU+heqlYps0xz7218cEOr7ymjyM/hj8BoErExAUx2leQnpKOpfHkCOpUcbvaXac7GN5d5Vk2UlFLcnvUMrPWMzDWLBTyudofP7Hm3YpHTlDT6ld7tqUD52YHz5DPXn6eZyH8conPfoOAksIiIhjKZ8jzayzeQyt59kEE9nIkWr6xBAh1RjZSEWtj/ks7j7nGOeLHOSvtel4R3kYS3ZMIZ8jJbOwEdyrp5xmIXdZsd2t8jb6Ebdhok8dQU9OZ/Iw+rr4DQIgkCUgI47ZppNQztgk4UFEuPpycQyRGmfSjnPnNAdEECwfq8YUjYlW5pPi5Oy4xDyTfI6jDJXB4DTyDXkhC3g+LKYXwAyuLHKOimkexg/t4zAQuAaBc4ijH6uXfTNBTMCTRo6+DinpMLV42JPVaNpbsENvBPPxWbh+WhLH+XZTH77YZmH0Pk0MjSbbk/0oAAEQCAQOJ47+lQb0ehYf8YVpLKtbTH2WFTX7uoIwDQ8keCMEeoPynJ2ZfI4hj+R4Wp1M/wf2Zz4sv+ZohdEn4c7L4LT0u8xnM35jFwgcncDvxLGYxzCdw/Kk1Ysgax9Ph2/+YiUlx9VJ3sa03M9507d60YgN8yo6MZ20GxZ84q08Xpp52EMX7q1962zYO1yQiZcLsu3On0KL1SvmZHQT6MHUOpuH0RUir+L8EGDvRQn8ThwvAjx75XQvfUdexb2MBPzYIQGIY51BCcFmuhRep6nPrSKv4ufscOT5CUAczz/G6CEIgMAHBCCOH0DDISAAAucnAHE8/xijhyAAAh8QgDh+AA2HgAAInJ8AxPH8Y4weggAIfEAA4vgBNBwCAiBwfgIi4ljKV5jNviPG/Pt8kaV+fdYFexf3ohuy/cPSiyq/c6bTzSZ2bDvWM1V+OvOdM4X9fde6TJWjRJX0VJBqmkYt60KfJLz0mUoKTc4Vb8q/1NARxqXkO5dbTINHERL8/lGuWROrx4uaHCYWmLX/ZqeIOM7nK6x6m3Q2i88bJot3z/drsRmuOMyk8/7gVfXblWfM2vqJu53eWhxtT52WdW2ig9SUf46804OvYeJQ2KSHJ3396YOUodrCjVX8F9p8W21X4zLrLQ/awN/ZfKMZY5+NV6c3eye6oDjm8xXa3DzxATtmlD5ml4Yhw/LwCHM2r+I0C054HLAYsQ7tsy/8jOBdm/DYYhhHbiLfr+XPRDtza79smfohvmqUbn1kNPNYYTYCKtTnYhYgPi4K0+APfCKOsZwc8jLmhljTU45vBS2wdhupOKbaSHnZ3hlLq2TojZt68zlngQJZfnhTKTcAzE3psCP10kdSSnct8XBIDzguI1gdJ4ZKiQ9rlPfEemmdHO1YM91Kj0rLP9gWEcdSPkf2dxo5BtXjfIshic49yYLz8jkQyUghryI/dl2isrzdh6LHtzkT2j193YL3gVQyeQDcurT2y798+LlDufp97xVo9PdzRjlydky2/uC0i8pkvwiuXSuHPnJstfbuGNN3Wg/+zq3k4zQ7VcDoAp0CFFKWhtqXd1oppRqltB6Lta+y+PeUWxrUUn/9Xw9yXenOsiAP/J8Jqs+llLndK6N3YGrfmB2Oi3c3+U2e85+AwRkzquEpJMWTzU/Gq9TmxPj7AhlxnPVjJFKv1sS0OvbAOyd0KKcaowQ5PsfELXkNwypxLLb7Lu/kbOcW7rQhh+JvyuJD4tfMHRIDl0apQVSWFTs+6tsvYRQBa8+aoy2nZiGN5CdxoutX+NXba4z+azVoObQbKk83+jaEbX37rTqOuU2+lMG9wZ60NFXzUO7dHtu35dlxzNsfGQx8NhsXH9/GEXZ0RzvCHwPXMxrDMA6+t9nfn42XDcfHjWbtvys8gTja8G2aV5F7PnPNcakoS4ijD31ipPVu4DhUSuvbK/heXwdfmELEwU3U+hIa+na+7cXqCuFLblMKxS/ZqMM5uwO5GHzI1X5XNuY2cSC0MNiTlqZ8Qrlvd2zflm8gjpXGxbs9+D3oOe1hYUzP2kH94YcBksGHYb3hp0mbw91rPu1PHCncC7m/jKH3rvjvWLq+zO9jeRozk1cxNZXmf2RAI3FMK4+m8yGRbTEb7hS5+DVH+jJpnlbz4m4UDhJH96fUBpfJbNfNR8ena7Z++Lr2XavCBTL6srk5o5080/yQcdgppL/0OSa0gk+8kE+T1eRCZRL+uYtcsZWMffu1cT2lbR+B0kEc7aTIoqn8VqARdgdoVDKcVkfDyZc81l8xrc6MY/BEeFxCx4sbA6GywuiZD/ZYXtPLLHPjVWyycPF5/fgaY34ojpP8ifGyXW5hxBJM8jYm1x+LeRXt2xfCQop7fcLKdoNxt/Bi5+/jFaTpWK0ejXCKT20NS9hynMwEtQgTJlqOSeXLiZY9JApZ0Y77anMLsX5iZbSAEBdelO6sWaePcUej6DpUosFr+NjZ9NQdjkRcuf/WeVZZ+/ZPg8fga9Jv53TiX7p3uM2WuVn+GaQvsT9ckHHXFPyhftI3WJCJhalt2g72reTy3pRmwCw8LkMuo0++r/5aajg7fe9ir+hIrj4ss4Fm6O7Ifunj6Go7V7PWPeDSkZPyH4rjxJeLF9izZ/UAXhzaNt0n9L8ln67Cb9OnS1ohEcxc0PxwfCGOlzyJ0OmUAH13RjFLurviNsX39t9wkl+xxSua/nR8IY5XPFvQZxAAgbcEII5vEaECCIDAFQlAHK846ugzCIDAWwIQx7eIUAEEQOCKBCCOVxx19BkEQOAtAYjjW0SoAAIgcEUCIuK4bd7D5cO0Wbv+Zt1pcpnlzqAmCIDAoQiIiOOmeQ9X4N2o3fj4Gj3mlbnHdIVLqAoCIHAQAoLiOMp7SHl0lKFHnu0DeSEnGD2/HLLsKPNIH87tXPadm3YH8mN8/Jw127n7B7Hp+eiWjI/adQOTefZ2yZBNngldchDqgAAIHI+AiDiW8jneGnNvXZ5E01PORPevkJ/x5p+nfvWkkuEB53s40CaqiPq4Zb5Fcm3x88++I/gNAiBwVAIy4ligk2bfMUlmsGx+RipMosKnduLI4SGHje5nopWFlj8ptllF0jj2EyM4BgRA4CAEdiiOhfyMJXE0SU6zatBZGBclbanmAwyDAAhIEvitOOam1TP5GUOkOZ5Wjy5NLgG4/JqjFUafEWt8zTGbaWlJ+6gDAiCwbwK/FUdlnskai8u3aOfXYXWF0imG3LdJ5YefVhPfNP+jGr9lIT8Ai1WNUnoM/qX5Wz7LE5f3CKUgAAJ7IvBrcQyCuBbKNI/3Wgsb1P8wT9wGLcMECIBAZQK/E8f4SqxkmeVtb8NRcUn67THVKnyaJ66aQzAMAiCwGYHfieNmXYAhEAABENieAMRxe6awCAIgcAICEMcTDCK6AAIgsD0BiOP2TGERBEDgBAQgjicYRHQBBEBgewIQx+2ZwiIIgMAJCIiI42Z5FTcCvpU//kZyvk98/sXHXCe9gXzUmU5//erkNf6MWsdHEACBEQERcdwor+LI9c8/buWPFTzSRKtKM8LHro4fPfy8A6bNZpVc6c8X7eNQEDg/AUFxzORV7M1N2XyO9jnCv4by7tDzgjYJozHmblM9htRkpbyNoRpnh+TUZy5bj3/0kM1yXh/elfGHnkTU9KzgW6GzZ4YVI6pK4pgGjvQ4Nj9yqLRSyt3lTuLY+ocRU3XjiG9owrBVW9ixOT6EQ9Dkgcboa9Gf85/H6CEIbE5ARByL+Ry9cvHD0SEj2UNRhlr+F1KTkVYmucheHeWCDP9opmyfqn7ZlI78VGJ67CBf5FZ5Hv1UmFRpoFGq7TiFT2+rsJtOu+yOTqtUTYu5Iq3sKt31vTG9/Wlt5SNHEmlrdehPgIQNEACB5QRkxDHnzygFWfoxK44uErSx5DRv40AHQ3NJAt18hVBz243wzpmG3qrgM50NptWdXiiOo2rsaEEct+0FrIHApQkcRxzn8zaWtM+VJyopOdx937cUzHGbEEdJ9mgLBL4k8DtxNIYuOLqsPDbnWDqt5uuMT/sSmHDN8V7O21gSR55ND/KbzRNbc82xYCm+kIumwjpcXdxUHF1Aaa9uah+bFhwK1y/j1L9cE3tAAAQsgZ+KIylXsiATxDEsvIxepJXP29i5V3SFNyWE65U8xnQ5MrlY+WbgeXHkKxVpldZ+Qabx02p7wdGv9QxWYPyHuMbCrY/LU59Ic/2KT5i2z/TM2spO0GcOwi4QuDSB34pjir7a2w6KQWXa+rm3SZkhjeceY/RucwL7EEe+F4dv5dmwi8FszCW+ofXjmMLi9XHGCp7uh8A+xHE/POAJCIAACFgCEEecCCAAAiCQIQBxzEBBEQiAAAhAHHEOgAAIgECGAMQxAwVFIAACIABxxDkAAiAAAhkCIuK4Kn9impUn4/CaovAeV7o/XJnwpM0aG7J17Q3t4Wb49Kb3u6aURQL/Zvjvjeeq80oAHZo4FwERcVybPzFNPPEV7i55NsY+oeieVvzK6KKDOW3aoqqjSsnN8I9E0J+tkDgaQ1njRk8ZOR9/x3MEiT+uPa+yRmwhEnmU2Vx3j6A4ZvInWsHix/7uKn75SRTsU9V0W3j65F9SP4RRHM6EqJBv/HZ70y9z8p0Pjyf+NYO8Z5m8kBzKaUOtaMOhCruURljhQGPMNHtQEJpSu7Hc5rUMXSMOXebcjPWH/pOActai4YHBvTTfJdkd8gyPuhf5F3iubTdTv8x55Gd6njDqzHm1Ji9neK7TP74ZHtPk5zdV26f5NLl6+oBnfPQoPtTZKN2+f+A9M7Qo2hEBEXEs5XNMv/zPZNpIuqNdTgpKNuFPs/DtJQ3yEdarNfehgtxDPov0y2yf4+bIcVVeSPoGWoOkLNaruw+s0ghr9JDiQNP9eOfb7egPQDYBRype99bXmclr2Sd1fMJgbpxkfZLvkjri2b58jkuOHLP8aRzD36qEp1nZbrb+POfwRyI9T0rnFXV5XQKRYuRIAmnTziX5NEsJRFqdZADpO61FLoP4kwu/NycgI44ltzsf6dgIMcx5s6IzI4KsRDebSJySWYSTMs1J4YVgGtnFL7yh2DBoMXsdEk0+tVPh4F7YMJMDp+JYanfUYmhuxCyIQskOB63hsuBtIo6jfs2kgCv2K8dzdbs2uJ76GTo+5Uyu+jye8Q/JCNBXH2fEMQaGvoW8OE4i0KX55L1Z/N4bgd+Ko6fx6s1jGDmGqWjQjhlxpFDRBpIUZqaBZBrp+LZmRGGqce6bb9V2+qUtiogZXg3gpn2oGxzhjdBB/hg0YlQtRm0FOxxGhUgw9S3brxkO6bED9wo8//wfnun1ysHh3CUbok79DB2fcg4oRudJKP96YwNxNJS++GtHYGBHBH4qjrfkSxW+EqMvWPrtyk6r+Zt/txEfhVd+zkuQs19mY1blhZz50tJlATstHeWdTFNV8mScRzzfbmlaPRSR9G9D1g756afnfFEv/IHJi6N9RU8IJ/k6Jh+yShzXtluqP8O5dJ7MfY/WTqtdgDjOjzlJ2J6+0KLv6I1AIbS0r74YXuEJHvL1y3A5M5RjY8cEfiuOmnSKF2TCF5sXOvgdW7wA8tf4qe5wASFgDZerTO+uD/KuMBcbZ+VJ7dgrcVQ/nTPaSRwphS+8d2415tHHV4CFhZFx3kk7yx71i5rItsvXT/1CytO2SFcGrDimfEJ/S3YCuju/p4yvvfousD/h5WVTfziaC0bcQod1jDW0xDMcsrDdTH3vZJbzLXeeRBrZrXVqFJdSfP5N/34zv0yTTpJDbaW7ll7I5vUx7KALldGSs+VrZf1F4f4I/FQc94cDHoFABQJ0PRLSWAFsXZMQx7p8YR0EDGkjZtTHOxEgjscbM3gMAiAgQADiKAAZTYAACByPAMTxeGMGj0EABAQIQBwFIKMJEACB4xGAOB5vzOAxCICAAAGIowBkNAECIHA8AiLi+Ku8e5yNJtz8PMpPUW+wNu2vf2YX98nVGzBYBoEMARFx5FwJj949ZJI+1pZx6aOiaaKHYCY85BdK6PG+kF0mLd1oe9P+9q2CLm40MDADAisICIpjJu9e8jhdmqdv8Hhc8jB/Ni/hNEvNSHxH4jhTPzwOGPM88sN8uXyOBLngPzeR6e/qVFrpk7wrRhVVQQAEviYgIo78mPCLE8EmIVspn2MpwQQnUJjmJZyPBEfiyMiykWM23yIpXTmfY+U8gxDHr89wGACBDwnIiGPJuVyevjT9DB8Xk9dO0iYGw1mx470LxXEaUXKex5lsMfXzDEIcwwhjAwSECfxWHH1n0zx9vxLHUn7DOXHM+e/LtvqNa45bkYQdEFhF4KfiWMrTNz+tDikI046GQ9L8iVwhHzn6Vymk9Yt5EgvJbkv+p46Nt9flGUTkOOaHzyAgReC34ljK05csdOTfeRDyLXpOIfNjyAtpbDLXcB8PrbEkiUiz9dMFlhvnefxxnkGIox9g/AYBaQI/FUfpzh6yPUyrDzlscPr4BCCOex9D3AS+9xGCfyclAHE86cCiWyAAAt8RgDh+xw9HgwAInJQAxPGkA4tugQAIfEdAQhz//fv3nZM4GgRAAASkCUiIo3Sf0B4IgAAIfE1AQhwROX49TDAAAiAgTUBCHIX6ZO95QXYvIdpoBgTOTkBCHGUiR9wsffZzFf0DAVECEuIo0yGIowxntAICFyEgIY6IHC9yMqGbIHAmAhLiKMCrb7VqVNcLNIUmQAAELkFAQhwROV7iVEInQeBcBCTEUYYYrjnKcEYrIHARAhLiiMjxIicTugkCZyIgIY5CvHCfoxBoNAMClyAgIY4ykeMlhgudBAEQkCIgIY5SfUE7IAACILAZAQlxROS42XDBEAiAgBQBCXGU6gvaAQEQAIHNCEiIY+3Isbb9zWDDEAiAwHEISIjjcWjAUxAAARBwBCTEsXZkV9s+ThYQAIELEpAQx8NjfWrz15h7Zx6KNh7fP8LdkZ1b+yGZrfzpdNM0je747a/bp8Ksbf9DfDgMBBYRkBDH2pFdbfvm1TpNZFV6LiL7rlL3uThu5U+4bd6qmO7eubx2f237a/1BfRBYQ0BCHNf4s8u6LEZPY0gclXkFJ3tzt7HkKAy8N05MHzbkvGl3wKszN7vrT5lnIo6xvDH3JJws2rFinfHHGNO7aDD4OLNhxYs0kcQxCRw7ynFk/yndppJpkx+5HUqp4Grf+QMa1WrlTZXsz7iEXSCwGwIS4lg7sqtt35jOaSKppFc6Y8wtEUoSuCAWXkbvHSnpy/40nblpL6xWVUP9e2Lz1Q30keV4YMcU/aGzao04kihaISMVSwPHvvdXDjodd9jUHi4tXG8P5dO400qHbHG8wx1esr+b0x+OgECZgIQ4lls/8p5XS1ch03/3RCufenxpclTyap2Yclj6xxEl/0y0cnRU2ly97RggNmqgmkmAGPWw0zGErOcTLIOANAEJcawd2dW2nx+TrcSRIsok5Bw19gNxtOGejwT7VqUhpfOu7/uWgk77kcTRB5oj7/ERBA5MQEIcD4xn3vX5afV4UXtmWq3MYxiEhnZXi+OqaXVoJtmgybPmaXVvLz4GcaQdQTTtXJoP85Nn+tTby4/hkMTucNMvZA9L8QkEdkRAQhxrR3a17ZeHK7sgY2/TSafJYXU7LrzYBZm4jJPaUX62XrZTdojXVuj2nLk6b/bZdRRadqHlmFaFtZpWaR0XXoJOkiSGFZxGqdYL6EwzVhsRcM4Qwq7fE5AQx9/3Eh7siwDJL6RxX2MCbyYEJMSxdmRX2/4EGgq+IzBeHP/OGo4GgToEJMSxjuewCgIgAAIVCUiIY+3Irrb9ivhhGgRAYK8EJMRxr32HXyAAAiBQJCAhjrUju9r2i/CwAwRA4LwEJMTxvPTQMxAAgdMSkBDH2pFdbfunHXx0DARAoExAQhzLrR9kz1b5E9d2d6t2/eMofHd3uMGQ7u+O/5Re9hBg+jzM2g65+gV/PrSGw0CgDgEJcawd2dW2Xyef44LxrJ63cZhzR+wZaSvSpNFWJb96mmcBRVQBgc8ISIjjZ57t6KhsPkfOCn63GRvpQcA0lU4b8za6h6Y59be25drmhUwOiY8VDvM5Ztt1XNY8Q23FiDSIxCgEjpT6LElIZkKOCQ7sVMuPVtNThO5hRN4xNGHdKeVzTLL4pHFp0Z8djTlcAQEJcawd2dW2X8yf+FAxReNdJTnKep+30Zh7Y/jZalI6m9OMMuDaxI535XYV8zkW8kjSabtGHIt5G1NxtNkaQ3YdK6OUZ6I3prc//XdlWI9KS/kcW62DPdN3WofkQ35qTirpldfbx28Q2AkBCXHcSVe3d+Ph1c3Y7LYhDQ/lavT5GW+JOHJqsqd2qSX4cA4P00QVaT7d7Z1OLfpQkLNMpAkjynnIJuJYyOdow8N4SZO2oIMpfGzvnYCEONaO7GrbL45hXhxtuPf0MVOoE7LbjsRxPp9jse1NdqSR49DgSnH0vU2NFEQzrYJtENgxAQlx3HH3v3MtCF8aOZII+tchPG0IGabV2cjRGHoRTSmfY9HBVdPqkpVNxDFM2qmVNJ9jR2+T+SZ3WsltlIOABAEJcawd2dW2nx8HXpD5s7NmvucmvLU17Lq39m2uil4jwxPne+dWYx69e9ErSWc2n2O+WV/KM+KvJqrJrTyjVZrBbNi3kc7BuYLfU8znmC7UJJlyfR/wGwT2TEBCHPfcf/gGAiAAAlkCEuJYO7KrbT8LDoUgAALnJiAhjucmiN6BAAickoCEONaO7GrbP+XAo1MgAALzBCTEcd4D7AUBEACBHRKQEEdEdjsceLgEAiAwT0BCHOc9wF4QAAEQ2CEBCXFE5LjDgYdLIAAC8wQkxHHeg0322jwJ4Z7kTUzCCAiAwKUJSIijTORYfhTu0gOMzoMACHxGQEIcP/Ns7VEhHeHaA1EfBEAABKYEJMRRJnKEOE5HFyUgAAIfE5AQx4+dW3egTTudZlBYdzhqgwAIgEBCQEIcETkmwLEJAiBwDAIS4ihDAtNqGc5oBQQuQkBCHGUiR6xWX+SURTdBQIaAhDgK9AT3OQpARhMgcCkCEuIoEzleatjQWRAAgdoEJMSxdh9gHwRAAAQ2JyAhjogcNx82GAQBEKhNQEIca/cB9kEABEBgcwIQx82RwiAIgMAZCEAczzCK6AMIgMDmBCCOmyOFQRAAgTMQkBFH9z54PPh8hlMGfQCBaxCQEUdi2bcK4niNkwq9BIEzEIA4nmEU0QcQAIHNCUAcN0cKgyAAAmcgAHE8wyiiDyAAApsTgDhujhQGQQAEzkAA4niGUUQfQAAENicAcdwcKQyCAAicgQDE8QyjiD6AAAhsTkBGHHET+OYDB4MgAAJ1CciIY90+wDoIgAAIbE4A4rg5UhgEARA4AwGI4xlGEX0AARDYnADEcXOkMAgCIHAGAhDHM4wi+gACILA5AYjj5khhEARA4AwEnDjivc9nGEz0AQRAYDsCMXLsdKO77QzDEgiAAAgcmUAUx75VEMcjDyV8BwEQ2JIAxHFLmrAFAiBwGgJRHE2nVdPgTQanGVp0BARA4BsCURwxrf6GI44FARA4GQGI48kGFN0BARDYhkAUR6xWb0MUVkAABE5BwIkj7nM8xWiiEyAAApsRiJHjZiZhCARAAASOTwDiePwxRA9AAAQqEIA4VoAKkyAAAscnAHE8/hiiByAAAhUIQBwrQIVJEACB4xOAOB5/DNEDEACBCgQgjhWgwiQIgMDxCUAcjz+G6AEIgEAFAhDHClBhEgRA4PgEII7HH0P0AARAoAKB/0lWodTEojCfAAAAAElFTkSuQmCC;" parent="1" vertex="1">
          <mxGeometry x="-2230" y="-345" width="436" height="699" as="geometry" />
        </mxCell>
        <mxCell id="QBqedO2uBExAdErLaSBS-12" value="Entry / Exit" style="rounded=1;whiteSpace=wrap;html=1;fillColor=#dae8fc;strokeColor=#6c8ebf;" parent="1" vertex="1">
          <mxGeometry x="-160" y="-440" width="200" height="40" as="geometry" />
        </mxCell>
        <mxCell id="QBqedO2uBExAdErLaSBS-13" value="Internal task" style="rounded=1;whiteSpace=wrap;html=1;" parent="1" vertex="1">
          <mxGeometry x="-160" y="-400" width="200" height="40" as="geometry" />
        </mxCell>
        <mxCell id="QBqedO2uBExAdErLaSBS-14" value="Pipeline hook" style="rounded=1;whiteSpace=wrap;html=1;fillColor=#d5e8d4;strokeColor=#82b366;" parent="1" vertex="1">
          <mxGeometry x="-160" y="-360" width="200" height="40" as="geometry" />
        </mxCell>
        <mxCell id="QBqedO2uBExAdErLaSBS-11" value="Fork" style="rhombus;whiteSpace=wrap;html=1;fillColor=#fff2cc;rounded=0;strokeColor=#d6b656;" parent="1" vertex="1">
          <mxGeometry x="-160" y="-320" width="200" height="40" as="geometry" />
        </mxCell>
        <mxCell id="QBqedO2uBExAdErLaSBS-15" value="Lib interaction with env/state" style="rounded=1;whiteSpace=wrap;html=1;fillColor=#e1d5e7;strokeColor=#9673a6;" parent="1" vertex="1">
          <mxGeometry x="-160" y="-280" width="200" height="40" as="geometry" />
        </mxCell>
        <mxCell id="QBqedO2uBExAdErLaSBS-16" value="Error" style="verticalLabelPosition=middle;verticalAlign=middle;html=1;shape=mxgraph.basic.plaque;dx=6;labelPosition=center;align=center;fillColor=#e51400;strokeColor=#B20000;fontColor=#ffffff;" parent="1" vertex="1">
          <mxGeometry x="-160" y="-240" width="200" height="40" as="geometry" />
        </mxCell>
        <mxCell id="eiwtjNp1VNXI7E1ZomQx-1" value="FactFinder" style="rounded=0;whiteSpace=wrap;html=1;fillColor=#230871;fontColor=#FFFFFF;fontStyle=1" parent="1" vertex="1">
          <mxGeometry x="-140" y="-480" width="160" height="40" as="geometry" />
        </mxCell>
        <mxCell id="4_irdhWraeRolEoQ-Jay-4" value="INFO: Export with border=40px" style="text;html=1;align=center;verticalAlign=middle;resizable=0;points=[];autosize=1;strokeColor=none;fillColor=none;" parent="1" vertex="1">
          <mxGeometry x="-1515" y="-620" width="190" height="30" as="geometry" />
        </mxCell>
        <mxCell id="OwK2bWAj1pkKwTB8wIO4-1" value="&lt;b&gt;allow&lt;/b&gt;: &lt;i&gt;[&#39;query&#39;, &#39;filters&#39;, &#39;sortItems&#39;, &#39;location&#39;, &#39;page&#39;]&lt;/i&gt;" style="rounded=1;whiteSpace=wrap;html=1;align=left;spacingLeft=24;" parent="1" vertex="1">
          <mxGeometry x="-1680" y="-340" width="520" height="40" as="geometry" />
        </mxCell>
        <mxCell id="OwK2bWAj1pkKwTB8wIO4-2" value="&lt;b&gt;block&lt;/b&gt;:&amp;nbsp;&lt;i&gt;[&#39;sortItems&#39;]&lt;/i&gt;" style="rounded=1;whiteSpace=wrap;html=1;align=left;spacingLeft=24;" parent="1" vertex="1">
          <mxGeometry x="-1680" y="-240" width="520" height="40" as="geometry" />
        </mxCell>
        <mxCell id="OwK2bWAj1pkKwTB8wIO4-3" value="&lt;b&gt;order&lt;/b&gt;:&amp;nbsp;&lt;i&gt;[&#39;page&#39;, &#39;query&#39;]&lt;/i&gt;" style="rounded=1;whiteSpace=wrap;html=1;align=left;spacingLeft=24;" parent="1" vertex="1">
          <mxGeometry x="-1680" y="-140" width="520" height="40" as="geometry" />
        </mxCell>
        <mxCell id="OwK2bWAj1pkKwTB8wIO4-4" value="&lt;b&gt;blockFilters&lt;/b&gt;: &lt;i&gt;[&#39;BaseSize&#39;]&lt;/i&gt;" style="rounded=1;whiteSpace=wrap;html=1;align=left;spacingLeft=24;" parent="1" vertex="1">
          <mxGeometry x="-1680" y="-40" width="520" height="40" as="geometry" />
        </mxCell>
        <mxCell id="OwK2bWAj1pkKwTB8wIO4-5" value="&lt;b&gt;stringifiers&lt;/b&gt;: &lt;i&gt;{&lt;/i&gt;&lt;div&gt;&lt;i&gt;&amp;nbsp; location: (addParam, location) =&amp;gt; {&amp;nbsp;&lt;/i&gt;&lt;/div&gt;&lt;div&gt;&lt;i&gt;&amp;nbsp; &amp;nbsp; addParam(`${location.latitude}:${location.longitude}`, `latitude`);&lt;/i&gt;&lt;/div&gt;&lt;div&gt;&lt;i&gt;&amp;nbsp; },&lt;/i&gt;&lt;/div&gt;&lt;div&gt;&lt;i&gt;}&lt;/i&gt;&lt;/div&gt;" style="rounded=1;whiteSpace=wrap;html=1;align=left;spacingLeft=24;" parent="1" vertex="1">
          <mxGeometry x="-1680" y="160" width="520" height="100" as="geometry" />
        </mxCell>
        <mxCell id="OwK2bWAj1pkKwTB8wIO4-6" value="&lt;b&gt;postStringifier&lt;/b&gt;: &lt;i&gt;(pairs) =&amp;gt; {&lt;/i&gt;&lt;div&gt;&lt;i&gt;&lt;font style=&quot;color: rgb(121, 121, 121);&quot;&gt;&amp;nbsp; // pairs: [..., { key: &quot;latitude&quot;, value: &quot;30.8:-42.8&quot; }, ... ]&lt;/font&gt;&lt;br&gt;&lt;/i&gt;&lt;div&gt;&lt;i&gt;&lt;br&gt;&lt;/i&gt;&lt;/div&gt;&lt;div&gt;&lt;i&gt;&amp;nbsp; pairs.unshift({ key: `custom`, value: `pole-position` });&lt;br&gt;&lt;/i&gt;&lt;div&gt;&lt;i&gt;&amp;nbsp; return pairs;&lt;/i&gt;&lt;/div&gt;&lt;div&gt;&lt;i&gt;}&lt;/i&gt;&lt;/div&gt;&lt;/div&gt;&lt;/div&gt;" style="rounded=1;whiteSpace=wrap;html=1;align=left;spacingLeft=24;" parent="1" vertex="1">
          <mxGeometry x="-1680" y="320" width="520" height="100" as="geometry" />
        </mxCell>
        <mxCell id="OwK2bWAj1pkKwTB8wIO4-7" value="&lt;b&gt;keyMapping&lt;/b&gt;: &lt;i&gt;{&lt;/i&gt;&lt;div&gt;&lt;i&gt;&amp;nbsp; custom: `myParam`,&lt;br&gt;&lt;/i&gt;&lt;div&gt;&lt;i&gt;&amp;nbsp; latitude: `loc`,&lt;/i&gt;&lt;/div&gt;&lt;div&gt;&lt;i&gt;}&lt;/i&gt;&lt;/div&gt;&lt;/div&gt;" style="rounded=1;whiteSpace=wrap;html=1;align=left;spacingLeft=24;" parent="1" vertex="1">
          <mxGeometry x="-1680" y="480" width="520" height="80" as="geometry" />
        </mxCell>
        <mxCell id="OwK2bWAj1pkKwTB8wIO4-10" value="" style="rounded=0;whiteSpace=wrap;html=1;fillColor=none;strokeWidth=2;strokeColor=#FF0000;opacity=80;" parent="1" vertex="1">
          <mxGeometry x="-2075.5" y="-105" width="100.5" height="25" as="geometry" />
        </mxCell>
        <mxCell id="OwK2bWAj1pkKwTB8wIO4-11" value="" style="rounded=0;whiteSpace=wrap;html=1;fillColor=none;strokeWidth=2;strokeColor=#FF0000;opacity=80;" parent="1" vertex="1">
          <mxGeometry x="-2075.5" y="-280" width="100.5" height="25" as="geometry" />
        </mxCell>
        <mxCell id="OwK2bWAj1pkKwTB8wIO4-14" style="edgeStyle=orthogonalEdgeStyle;rounded=0;orthogonalLoop=1;jettySize=auto;html=1;exitX=0.5;exitY=0;exitDx=0;exitDy=0;entryX=1;entryY=0.5;entryDx=0;entryDy=0;strokeColor=#FF0000;strokeWidth=2;opacity=80;" parent="1" source="OwK2bWAj1pkKwTB8wIO4-12" target="OwK2bWAj1pkKwTB8wIO4-11" edge="1">
          <mxGeometry relative="1" as="geometry">
            <Array as="points">
              <mxPoint x="-1540" y="-30" />
              <mxPoint x="-1540" y="-60" />
              <mxPoint x="-1740" y="-60" />
            </Array>
          </mxGeometry>
        </mxCell>
        <mxCell id="OwK2bWAj1pkKwTB8wIO4-15" style="edgeStyle=orthogonalEdgeStyle;rounded=0;orthogonalLoop=1;jettySize=auto;html=1;entryX=1;entryY=0.5;entryDx=0;entryDy=0;strokeColor=#FF0000;strokeWidth=2;exitX=0.5;exitY=0;exitDx=0;exitDy=0;opacity=80;" parent="1" source="OwK2bWAj1pkKwTB8wIO4-12" target="OwK2bWAj1pkKwTB8wIO4-10" edge="1">
          <mxGeometry relative="1" as="geometry">
            <mxPoint x="-1640" y="-100" as="sourcePoint" />
            <Array as="points">
              <mxPoint x="-1541" y="-30" />
              <mxPoint x="-1541" y="-60" />
              <mxPoint x="-1740" y="-60" />
              <mxPoint x="-1930" y="-92" />
            </Array>
          </mxGeometry>
        </mxCell>
        <mxCell id="OwK2bWAj1pkKwTB8wIO4-12" value="" style="rounded=0;whiteSpace=wrap;html=1;fillColor=none;strokeWidth=2;strokeColor=#FF0000;opacity=80;" parent="1" vertex="1">
          <mxGeometry x="-1583" y="-30" width="73" height="20" as="geometry" />
        </mxCell>
        <mxCell id="OwK2bWAj1pkKwTB8wIO4-18" value="" style="rounded=0;whiteSpace=wrap;html=1;fillColor=none;strokeWidth=2;strokeColor=#0000FF;opacity=80;" parent="1" vertex="1">
          <mxGeometry x="-2205" y="-315" width="90" height="25" as="geometry" />
        </mxCell>
        <mxCell id="OwK2bWAj1pkKwTB8wIO4-41" style="edgeStyle=orthogonalEdgeStyle;rounded=0;orthogonalLoop=1;jettySize=auto;html=1;exitX=1;exitY=0.5;exitDx=0;exitDy=0;strokeColor=#0000FF;strokeWidth=2;opacity=80;" parent="1" source="OwK2bWAj1pkKwTB8wIO4-25" edge="1">
          <mxGeometry relative="1" as="geometry">
            <mxPoint x="-2205" y="-60" as="targetPoint" />
            <Array as="points">
              <mxPoint x="-1140" y="-320" />
              <mxPoint x="-1140" y="-360" />
              <mxPoint x="-2260" y="-360" />
              <mxPoint x="-2260" y="-60" />
            </Array>
          </mxGeometry>
        </mxCell>
        <mxCell id="OwK2bWAj1pkKwTB8wIO4-25" value="" style="rounded=0;whiteSpace=wrap;html=1;fillColor=none;strokeWidth=2;strokeColor=#0000FF;opacity=80;" parent="1" vertex="1">
          <mxGeometry x="-1620" y="-332.5" width="245" height="25" as="geometry" />
        </mxCell>
        <mxCell id="OwK2bWAj1pkKwTB8wIO4-44" style="edgeStyle=orthogonalEdgeStyle;rounded=0;orthogonalLoop=1;jettySize=auto;html=1;exitX=1;exitY=0.5;exitDx=0;exitDy=0;strokeWidth=2;strokeColor=#0000FF;opacity=80;endArrow=none;startFill=0;" parent="1" source="OwK2bWAj1pkKwTB8wIO4-26" edge="1">
          <mxGeometry relative="1" as="geometry">
            <mxPoint x="-1140" y="-220" as="targetPoint" />
          </mxGeometry>
        </mxCell>
        <mxCell id="OwK2bWAj1pkKwTB8wIO4-26" value="" style="rounded=0;whiteSpace=wrap;html=1;fillColor=none;strokeWidth=2;strokeColor=#0000FF;opacity=80;" parent="1" vertex="1">
          <mxGeometry x="-1618" y="-232.5" width="73" height="25" as="geometry" />
        </mxCell>
        <mxCell id="OwK2bWAj1pkKwTB8wIO4-45" style="edgeStyle=orthogonalEdgeStyle;rounded=0;orthogonalLoop=1;jettySize=auto;html=1;exitX=1;exitY=0.5;exitDx=0;exitDy=0;strokeWidth=2;strokeColor=#0000FF;opacity=80;endArrow=none;startFill=0;" parent="1" source="OwK2bWAj1pkKwTB8wIO4-27" edge="1">
          <mxGeometry relative="1" as="geometry">
            <mxPoint x="-1140" y="-320" as="targetPoint" />
          </mxGeometry>
        </mxCell>
        <mxCell id="OwK2bWAj1pkKwTB8wIO4-27" value="" style="rounded=0;whiteSpace=wrap;html=1;fillColor=none;strokeWidth=2;strokeColor=#0000FF;opacity=80;" parent="1" vertex="1">
          <mxGeometry x="-1618" y="-132.5" width="88" height="25" as="geometry" />
        </mxCell>
        <mxCell id="OwK2bWAj1pkKwTB8wIO4-47" style="rounded=0;orthogonalLoop=1;jettySize=auto;html=1;exitX=0;exitY=0.5;exitDx=0;exitDy=0;entryX=1;entryY=0.5;entryDx=0;entryDy=0;strokeColor=#0000FF;strokeWidth=2;opacity=80;" parent="1" source="OwK2bWAj1pkKwTB8wIO4-28" target="OwK2bWAj1pkKwTB8wIO4-46" edge="1">
          <mxGeometry relative="1" as="geometry" />
        </mxCell>
        <mxCell id="OwK2bWAj1pkKwTB8wIO4-28" value="" style="rounded=0;whiteSpace=wrap;html=1;fillColor=none;strokeWidth=2;strokeColor=#0000FF;opacity=80;" parent="1" vertex="1">
          <mxGeometry x="-1655" y="189.5" width="55" height="12.5" as="geometry" />
        </mxCell>
        <mxCell id="OwK2bWAj1pkKwTB8wIO4-36" style="edgeStyle=orthogonalEdgeStyle;rounded=0;orthogonalLoop=1;jettySize=auto;html=1;exitX=0.5;exitY=1;exitDx=0;exitDy=0;entryX=0.5;entryY=0;entryDx=0;entryDy=0;strokeWidth=2;strokeColor=#80FF00;opacity=80;" parent="1" source="OwK2bWAj1pkKwTB8wIO4-32" target="OwK2bWAj1pkKwTB8wIO4-35" edge="1">
          <mxGeometry relative="1" as="geometry">
            <Array as="points">
              <mxPoint x="-1470" y="235" />
              <mxPoint x="-1431" y="235" />
            </Array>
          </mxGeometry>
        </mxCell>
        <mxCell id="OwK2bWAj1pkKwTB8wIO4-32" value="" style="rounded=0;whiteSpace=wrap;html=1;fillColor=none;strokeWidth=2;strokeColor=#80FF00;opacity=80;" parent="1" vertex="1">
          <mxGeometry x="-1580" y="203" width="220" height="16" as="geometry" />
        </mxCell>
        <mxCell id="OwK2bWAj1pkKwTB8wIO4-38" style="edgeStyle=orthogonalEdgeStyle;rounded=0;orthogonalLoop=1;jettySize=auto;html=1;exitX=0.5;exitY=1;exitDx=0;exitDy=0;entryX=1;entryY=0;entryDx=0;entryDy=0;strokeColor=#FF3399;strokeWidth=2;opacity=80;" parent="1" source="OwK2bWAj1pkKwTB8wIO4-33" target="OwK2bWAj1pkKwTB8wIO4-34" edge="1">
          <mxGeometry relative="1" as="geometry">
            <Array as="points">
              <mxPoint x="-1333" y="245" />
              <mxPoint x="-1500" y="245" />
            </Array>
          </mxGeometry>
        </mxCell>
        <mxCell id="OwK2bWAj1pkKwTB8wIO4-33" value="" style="rounded=0;whiteSpace=wrap;html=1;fillColor=none;strokeWidth=2;strokeColor=#FF3399;opacity=80;" parent="1" vertex="1">
          <mxGeometry x="-1356" y="203" width="46" height="16" as="geometry" />
        </mxCell>
        <mxCell id="OwK2bWAj1pkKwTB8wIO4-40" style="edgeStyle=orthogonalEdgeStyle;rounded=0;orthogonalLoop=1;jettySize=auto;html=1;exitX=0.5;exitY=1;exitDx=0;exitDy=0;entryX=0;entryY=0.5;entryDx=0;entryDy=0;strokeWidth=2;strokeColor=#FF3399;opacity=80;" parent="1" source="OwK2bWAj1pkKwTB8wIO4-34" target="OwK2bWAj1pkKwTB8wIO4-39" edge="1">
          <mxGeometry relative="1" as="geometry">
            <Array as="points">
              <mxPoint x="-1527" y="365" />
              <mxPoint x="-1700" y="365" />
              <mxPoint x="-1700" y="529" />
              <mxPoint x="-1652" y="529" />
            </Array>
          </mxGeometry>
        </mxCell>
        <mxCell id="OwK2bWAj1pkKwTB8wIO4-34" value="" style="rounded=0;whiteSpace=wrap;html=1;fillColor=none;strokeWidth=2;strokeColor=#FF3399;opacity=80;" parent="1" vertex="1">
          <mxGeometry x="-1555" y="341" width="55" height="18" as="geometry" />
        </mxCell>
        <mxCell id="OwK2bWAj1pkKwTB8wIO4-35" value="" style="rounded=0;whiteSpace=wrap;html=1;fillColor=none;strokeWidth=2;strokeColor=#80FF00;opacity=80;" parent="1" vertex="1">
          <mxGeometry x="-1463" y="341" width="65" height="18" as="geometry" />
        </mxCell>
        <mxCell id="OwK2bWAj1pkKwTB8wIO4-39" value="" style="rounded=0;whiteSpace=wrap;html=1;fillColor=none;strokeWidth=2;strokeColor=#FF3399;opacity=80;" parent="1" vertex="1">
          <mxGeometry x="-1652.5" y="520" width="50" height="17" as="geometry" />
        </mxCell>
        <mxCell id="OwK2bWAj1pkKwTB8wIO4-46" value="" style="rounded=0;whiteSpace=wrap;html=1;fillColor=none;strokeWidth=2;strokeColor=#0000FF;opacity=80;" parent="1" vertex="1">
          <mxGeometry x="-2205" y="170" width="90" height="20" as="geometry" />
        </mxCell>
        <mxCell id="OwK2bWAj1pkKwTB8wIO4-48" value="" style="endArrow=none;html=1;rounded=0;strokeWidth=2;strokeColor=#0000FF;entryX=0;entryY=1;entryDx=0;entryDy=0;opacity=80;" parent="1" target="OwK2bWAj1pkKwTB8wIO4-18" edge="1">
          <mxGeometry width="50" height="50" relative="1" as="geometry">
            <mxPoint x="-2205" y="255" as="sourcePoint" />
            <mxPoint x="-2205" y="140" as="targetPoint" />
          </mxGeometry>
        </mxCell>
        <mxCell id="OwK2bWAj1pkKwTB8wIO4-50" value="" style="endArrow=none;html=1;rounded=0;strokeWidth=2;strokeColor=#0000FF;opacity=80;" parent="1" edge="1">
          <mxGeometry width="50" height="50" relative="1" as="geometry">
            <mxPoint x="-2085" y="140" as="sourcePoint" />
            <mxPoint x="-2205" y="140" as="targetPoint" />
          </mxGeometry>
        </mxCell>
        <mxCell id="OwK2bWAj1pkKwTB8wIO4-51" value="" style="endArrow=none;html=1;rounded=0;strokeWidth=2;strokeColor=#0000FF;opacity=80;" parent="1" edge="1">
          <mxGeometry width="50" height="50" relative="1" as="geometry">
            <mxPoint x="-2085" y="140" as="sourcePoint" />
            <mxPoint x="-2085" y="170" as="targetPoint" />
          </mxGeometry>
        </mxCell>
        <mxCell id="OwK2bWAj1pkKwTB8wIO4-52" value="" style="endArrow=none;html=1;rounded=0;strokeWidth=2;strokeColor=#0000FF;exitX=1;exitY=0;exitDx=0;exitDy=0;opacity=80;" parent="1" source="OwK2bWAj1pkKwTB8wIO4-46" edge="1">
          <mxGeometry width="50" height="50" relative="1" as="geometry">
            <mxPoint x="-2280" y="170" as="sourcePoint" />
            <mxPoint x="-2085" y="170" as="targetPoint" />
          </mxGeometry>
        </mxCell>
        <mxCell id="OwK2bWAj1pkKwTB8wIO4-53" value="" style="endArrow=none;html=1;rounded=0;strokeWidth=2;strokeColor=#0000FF;opacity=80;" parent="1" edge="1">
          <mxGeometry width="50" height="50" relative="1" as="geometry">
            <mxPoint x="-2205" y="255" as="sourcePoint" />
            <mxPoint x="-2110" y="255" as="targetPoint" />
          </mxGeometry>
        </mxCell>
        <mxCell id="OwK2bWAj1pkKwTB8wIO4-54" value="" style="endArrow=none;html=1;rounded=0;strokeWidth=2;strokeColor=#0000FF;opacity=80;" parent="1" edge="1">
          <mxGeometry width="50" height="50" relative="1" as="geometry">
            <mxPoint x="-2110" y="235" as="sourcePoint" />
            <mxPoint x="-2110" y="255" as="targetPoint" />
          </mxGeometry>
        </mxCell>
        <mxCell id="OwK2bWAj1pkKwTB8wIO4-55" value="" style="endArrow=none;html=1;rounded=0;strokeWidth=2;strokeColor=#0000FF;opacity=80;" parent="1" edge="1">
          <mxGeometry width="50" height="50" relative="1" as="geometry">
            <mxPoint x="-2110" y="235" as="sourcePoint" />
            <mxPoint x="-1990" y="235" as="targetPoint" />
          </mxGeometry>
        </mxCell>
        <mxCell id="OwK2bWAj1pkKwTB8wIO4-56" value="" style="endArrow=none;html=1;rounded=0;strokeWidth=2;strokeColor=#0000FF;opacity=80;" parent="1" edge="1">
          <mxGeometry width="50" height="50" relative="1" as="geometry">
            <mxPoint x="-1990" y="220" as="sourcePoint" />
            <mxPoint x="-1990" y="235" as="targetPoint" />
          </mxGeometry>
        </mxCell>
        <mxCell id="OwK2bWAj1pkKwTB8wIO4-57" value="" style="endArrow=none;html=1;rounded=0;strokeWidth=2;strokeColor=#0000FF;opacity=80;" parent="1" edge="1">
          <mxGeometry width="50" height="50" relative="1" as="geometry">
            <mxPoint x="-1990" y="220" as="sourcePoint" />
            <mxPoint x="-2140" y="220" as="targetPoint" />
          </mxGeometry>
        </mxCell>
        <mxCell id="OwK2bWAj1pkKwTB8wIO4-58" value="" style="endArrow=none;html=1;rounded=0;strokeWidth=2;strokeColor=#0000FF;exitX=0.72;exitY=1.042;exitDx=0;exitDy=0;exitPerimeter=0;opacity=80;" parent="1" source="OwK2bWAj1pkKwTB8wIO4-46" edge="1">
          <mxGeometry width="50" height="50" relative="1" as="geometry">
            <mxPoint x="-2270" y="190" as="sourcePoint" />
            <mxPoint x="-2140" y="220" as="targetPoint" />
          </mxGeometry>
        </mxCell>
        <mxCell id="OwK2bWAj1pkKwTB8wIO4-60" value="" style="rounded=0;whiteSpace=wrap;html=1;fillColor=none;strokeWidth=2;strokeColor=#FF9933;opacity=80;" parent="1" vertex="1">
          <mxGeometry x="-2100" y="170" width="285" height="20" as="geometry" />
        </mxCell>
        <mxCell id="OwK2bWAj1pkKwTB8wIO4-63" style="edgeStyle=orthogonalEdgeStyle;rounded=0;orthogonalLoop=1;jettySize=auto;html=1;exitX=0.5;exitY=0;exitDx=0;exitDy=0;entryX=1;entryY=0.5;entryDx=0;entryDy=0;strokeWidth=2;strokeColor=#FF9933;opacity=80;" parent="1" source="OwK2bWAj1pkKwTB8wIO4-62" target="OwK2bWAj1pkKwTB8wIO4-60" edge="1">
          <mxGeometry relative="1" as="geometry">
            <Array as="points">
              <mxPoint x="-1513" y="140" />
              <mxPoint x="-1740" y="140" />
              <mxPoint x="-1740" y="180" />
            </Array>
          </mxGeometry>
        </mxCell>
        <mxCell id="OwK2bWAj1pkKwTB8wIO4-62" value="" style="rounded=0;whiteSpace=wrap;html=1;fillColor=none;strokeWidth=2;strokeColor=#FF9933;opacity=80;" parent="1" vertex="1">
          <mxGeometry x="-1535" y="189.5" width="44" height="12.5" as="geometry" />
        </mxCell>
        <mxCell id="OwK2bWAj1pkKwTB8wIO4-64" value="&lt;b&gt;SearchParams&lt;/b&gt;" style="rounded=1;whiteSpace=wrap;html=1;align=center;spacingLeft=0;strokeColor=#6c8ebf;verticalAlign=middle;fontFamily=Helvetica;fontSize=12;fontColor=default;fillColor=#dae8fc;" parent="1" vertex="1">
          <mxGeometry x="-1580" y="-440" width="320" height="40" as="geometry" />
        </mxCell>
        <mxCell id="OwK2bWAj1pkKwTB8wIO4-66" value="&lt;b&gt;URLParams&lt;/b&gt;" style="rounded=1;whiteSpace=wrap;html=1;align=center;spacingLeft=0;strokeColor=#6c8ebf;verticalAlign=middle;fontFamily=Helvetica;fontSize=12;fontColor=default;fillColor=#dae8fc;" parent="1" vertex="1">
          <mxGeometry x="-1580" y="620" width="320" height="40" as="geometry" />
        </mxCell>
        <mxCell id="OwK2bWAj1pkKwTB8wIO4-68" value="" style="rounded=0;whiteSpace=wrap;html=1;fillColor=none;strokeWidth=2;strokeColor=#FF3399;opacity=80;" parent="1" vertex="1">
          <mxGeometry x="-1652.5" y="505" width="50" height="15" as="geometry" />
        </mxCell>
        <mxCell id="OwK2bWAj1pkKwTB8wIO4-70" style="edgeStyle=orthogonalEdgeStyle;rounded=0;orthogonalLoop=1;jettySize=auto;html=1;exitX=0.5;exitY=1;exitDx=0;exitDy=0;entryX=0;entryY=0.5;entryDx=0;entryDy=0;strokeWidth=2;strokeColor=#FF3399;opacity=80;" parent="1" source="OwK2bWAj1pkKwTB8wIO4-69" target="OwK2bWAj1pkKwTB8wIO4-68" edge="1">
          <mxGeometry relative="1" as="geometry">
            <Array as="points">
              <mxPoint x="-1521" y="460" />
              <mxPoint x="-1670" y="460" />
              <mxPoint x="-1670" y="513" />
              <mxPoint x="-1652" y="513" />
            </Array>
          </mxGeometry>
        </mxCell>
        <mxCell id="OwK2bWAj1pkKwTB8wIO4-69" value="" style="rounded=0;whiteSpace=wrap;html=1;fillColor=none;strokeWidth=2;strokeColor=#FF3399;opacity=80;" parent="1" vertex="1">
          <mxGeometry x="-1546" y="370" width="50" height="18" as="geometry" />
        </mxCell>
        <mxCell id="dP7_pyaXJRkLh--tu1lG-1" value="?&lt;b&gt;page&lt;/b&gt;=2&amp;amp;&lt;b&gt;query&lt;/b&gt;=shirt&amp;amp;&lt;b&gt;filter&lt;/b&gt;=Category%3AT-shirts&amp;amp;&lt;b&gt;latitude&lt;/b&gt;=30.8&amp;amp;&lt;b&gt;longitude&lt;/b&gt;=-42.8" style="rounded=1;whiteSpace=wrap;html=1;fontColor=#797979;fontStyle=2;align=left;spacingLeft=6;strokeColor=#797979;" vertex="1" parent="1">
          <mxGeometry x="-1680" y="100" width="470" height="20" as="geometry" />
        </mxCell>
        <mxCell id="dP7_pyaXJRkLh--tu1lG-2" value="&lt;b&gt;categoryInfo&lt;/b&gt;: &lt;i&gt;{ fieldName: &#39;Category&#39;, fixedPath: [&#39;Clothing&#39;, &#39;Long &amp;amp; short sleeve shirts&#39;] }&lt;/i&gt;" style="rounded=1;whiteSpace=wrap;html=1;align=left;spacingLeft=24;" vertex="1" parent="1">
          <mxGeometry x="-1680" y="60" width="520" height="40" as="geometry" />
        </mxCell>
        <mxCell id="dP7_pyaXJRkLh--tu1lG-5" value="" style="rounded=0;whiteSpace=wrap;html=1;fillColor=none;strokeWidth=2;strokeColor=#CCCCFF;opacity=80;" vertex="1" parent="1">
          <mxGeometry x="-1510" y="70" width="60" height="20" as="geometry" />
        </mxCell>
        <mxCell id="dP7_pyaXJRkLh--tu1lG-10" style="edgeStyle=orthogonalEdgeStyle;rounded=0;orthogonalLoop=1;jettySize=auto;html=1;exitX=0.5;exitY=0;exitDx=0;exitDy=0;entryX=0.5;entryY=1;entryDx=0;entryDy=0;strokeWidth=2;strokeColor=#CCCCFF;opacity=80;" edge="1" parent="1" source="dP7_pyaXJRkLh--tu1lG-6" target="dP7_pyaXJRkLh--tu1lG-8">
          <mxGeometry relative="1" as="geometry">
            <Array as="points">
              <mxPoint x="-1288" y="35" />
              <mxPoint x="-1922" y="35" />
            </Array>
          </mxGeometry>
        </mxCell>
        <mxCell id="dP7_pyaXJRkLh--tu1lG-6" value="" style="rounded=0;whiteSpace=wrap;html=1;fillColor=none;strokeWidth=2;strokeColor=#CCCCFF;opacity=80;" vertex="1" parent="1">
          <mxGeometry x="-1390" y="70" width="205" height="20" as="geometry" />
        </mxCell>
        <mxCell id="dP7_pyaXJRkLh--tu1lG-7" value="" style="rounded=0;whiteSpace=wrap;html=1;fillColor=none;strokeWidth=2;strokeColor=#CCCCFF;opacity=80;" vertex="1" parent="1">
          <mxGeometry x="-2070" y="-110" width="90" height="35" as="geometry" />
        </mxCell>
        <mxCell id="dP7_pyaXJRkLh--tu1lG-8" value="" style="rounded=0;whiteSpace=wrap;html=1;fillColor=none;strokeWidth=2;strokeColor=#CCCCFF;opacity=80;" vertex="1" parent="1">
          <mxGeometry x="-2045" y="-40" width="245" height="35" as="geometry" />
        </mxCell>
        <mxCell id="dP7_pyaXJRkLh--tu1lG-9" style="edgeStyle=orthogonalEdgeStyle;rounded=0;orthogonalLoop=1;jettySize=auto;html=1;exitX=0.5;exitY=0;exitDx=0;exitDy=0;strokeWidth=2;strokeColor=#CCCCFF;entryX=0.5;entryY=1;entryDx=0;entryDy=0;opacity=80;" edge="1" parent="1" source="dP7_pyaXJRkLh--tu1lG-5" target="dP7_pyaXJRkLh--tu1lG-7">
          <mxGeometry relative="1" as="geometry">
            <mxPoint x="-1735" y="-25" as="targetPoint" />
            <Array as="points">
              <mxPoint x="-1480" y="45" />
              <mxPoint x="-2080" y="45" />
              <mxPoint x="-2080" y="-55" />
            </Array>
          </mxGeometry>
        </mxCell>
      </root>
    </mxGraphModel>
  </diagram>
</mxfile>
